<svg xmlns="http://www.w3.org/2000/svg" width="455" height="59" viewBox="0 0 455 59"><defs><clipPath id="jixaa"><path d="M312.92.4h48.917v57.773H312.92z"/></clipPath><clipPath id="jixab"><path d="M0 1.6h54.446v55.167H0z"/></clipPath></defs><g><g><g><g/><g clip-path="url(#jixaa)"><path fill="#fefefe" d="M344.117.4c.385.063.774.177 1.163.186 4.336.074 8.566.738 12.589 2.412 1.186.495 2.313 1.153 3.437 1.783.236.132.49.482.494.736.032 3.23.021 6.46.021 9.88-.512-.407-.909-.72-1.3-1.037-3.912-3.175-8.388-4.966-13.387-5.538-3.396-.39-6.766-.361-10.029.706-7.035 2.303-11.313 7.248-13.025 14.326-1.372 5.677-.787 11.236 2.185 16.366 3.154 5.44 7.9 8.675 14.156 9.47 5.029.638 9.904-.101 14.59-2.097 2.266-.962 4.226-2.373 6.137-3.881.173-.136.348-.268.62-.476.02.297.053.5.053.704.004 2.911-.013 5.822.015 8.733.007.58-.217.898-.688 1.187-3.16 1.95-6.612 3.11-10.267 3.622-2.062.288-4.154.34-6.231.512-.182.014-.355.118-.533.179h-1.344c-.41-.068-.82-.184-1.23-.202-8.51-.381-15.807-3.448-21.598-9.8-3.705-4.064-5.94-8.84-6.686-14.292-.744-5.462-.317-10.8 1.82-15.94a25.19 25.19 0 0 1 4.65-7.333c4.983-5.486 11.138-8.76 18.506-9.693 1.329-.168 2.67-.212 4.005-.327.23-.019.454-.123.683-.186z"/></g></g><g><g/><g clip-path="url(#jixab)"><path fill="#fefefe" d="M0 1.665c9.143 0 18.11-.176 27.064.053 7.814.2 14.737 2.859 20.18 8.739 3.927 4.243 6.294 9.223 6.974 14.95 1.294 10.852-2.879 21.298-13.103 27.4-3.22 1.92-6.749 3.072-10.472 3.481a79.358 79.358 0 0 1-7.657.444c-5.374.066-10.753.02-16.128.02-.991-.002-.993-.002-.993-.981-.003-14.232.016-28.464-.025-42.693-.007-1.747-.106-3.55-.553-5.227C4.55 5.083 2.67 3.101 0 1.665m16.02 27.513c0 6.244.01 12.487-.016 18.731-.003.722.22.943.931.93 2.192-.038 4.386.078 6.57-.05 2.049-.117 4.125-.298 6.123-.747 5.766-1.305 10.136-4.537 12.661-9.953 2.046-4.38 2.283-9.014 1.352-13.707-.966-4.87-3.565-8.696-7.697-11.446-3.484-2.313-7.417-3.188-11.525-3.339-2.486-.09-4.98.013-7.466-.038-.765-.015-.953.215-.952.965.032 6.219.02 12.435.02 18.654"/></g></g><g><path fill="#fefefe" d="M248.51 56.752h-2.65c-3.111 0-6.226-.043-9.337.025-1.019.022-1.757-.248-2.374-1.044-.435-.56-.961-1.043-1.447-1.56-1.35-1.419-2.706-2.835-4.056-4.254-1.785-1.882-3.58-3.755-5.352-5.65-1.211-1.293-2.371-2.633-3.582-3.925-.608-.653-1.306-1.221-1.918-1.874-1.212-1.29-2.373-2.627-3.584-3.92-.9-.96-1.841-1.878-2.77-2.808-.058-.058-.18-.05-.382-.104-.034.376-.084.704-.084 1.033-.006 7.687-.003 15.374-.003 23.064 0 1.015-.003 1.017-1.033 1.017h-7.842c-1.15 0-1.153 0-1.153-1.125 0-14.679-.006-29.358.002-44.037.002-2.51-.607-4.813-2.131-6.843-.961-1.277-2.183-2.234-3.724-3.086h14.651c1.23 0 1.23 0 1.23 1.265v20.078c0 .339.034.675.052 1.013.072.052.144.103.219.153.332-.312.677-.613.997-.936.19-.192.324-.438.51-.633 1.345-1.418 2.697-2.826 4.047-4.24l3.116-3.27c.9-.946 1.804-1.89 2.703-2.837 1.022-1.07 2.043-2.143 3.063-3.213 1.125-1.184 2.252-2.36 3.376-3.54 1.074-1.125 2.128-2.266 3.23-3.367.238-.237.628-.451.953-.454 3.708-.03 7.415-.018 11.126-.015.043 0 .086.032.187.071-.123.138-.224.267-.338.38-6.408 6.438-12.812 12.881-19.235 19.303-1.228 1.226-2.544 2.368-3.814 3.547-.11.1-.215.21-.316.318-1.075 1.119-1.075 1.302-.03 2.39 1.163 1.207 2.316 2.421 3.475 3.634 1.052 1.102 2.11 2.209 3.16 3.314.974 1.017 1.941 2.034 2.91 3.05 1.075 1.122 2.146 2.245 3.217 3.367l2.91 3.053c1.069 1.122 2.141 2.244 3.213 3.365l2.911 3.053c1.056 1.108 2.117 2.21 3.167 3.321.877.928 1.742 1.865 2.73 2.92"/></g><g><path fill="#fefefe" d="M308.458 56.753c-2.91.003-5.822-.014-8.736.013-.583.007-.886-.184-1.126-.721-2.138-4.844-4.316-9.672-6.448-14.516-.289-.664-.625-.921-1.375-.917-6.569.032-13.14.03-19.706.001-.71-.004-1.057.211-1.332.864-2.033 4.834-4.115 9.648-6.153 14.481-.249.593-.561.82-1.21.81-2.468-.037-4.929-.015-7.393-.015h-.789c.417-1.001.789-1.911 1.173-2.815 7.299-17.098 14.603-34.195 21.886-51.3.304-.715.653-1.03 1.473-.995 1.64.072 3.285.07 4.922 0 .827-.034 1.236.236 1.566.99 3.556 8.075 7.146 16.136 10.727 24.201 4.29 9.653 8.576 19.31 12.86 28.965.12.268.228.54.388.921-.333.017-.53.033-.727.033zm-20.306-23.928c-2.556-5.81-5.044-11.469-7.617-17.315-2.381 5.869-4.68 11.543-7.02 17.315z"/></g><g><path fill="#fefefe" d="M64.03 1.66h37.96c1.117 0 1.117 0 1.117 1.154 0 1.963-.03 3.93.012 5.894.014.69-.202.887-.89.886-7.118-.024-14.236-.015-21.355-.015-1.023 0-1.033.007-1.033 1.046-.004 4.429-.004 8.856 0 13.284 0 .996.044 1.032 1.071 1.032h20.311c.994 0 .997.003.999.974 0 1.916-.03 3.83.013 5.745.017.713-.19.936-.92.933-6.77-.026-13.538-.015-20.31-.015-1.162 0-1.166.002-1.166 1.16-.002 4.677-.002 9.353 0 14.031.002 1.013.047 1.058 1.044 1.058h21.956c1.009 0 1.01.003 1.01 1.038 0 2.04-.016 4.08.012 6.119.008.579-.18.778-.771.778-10.802-.012-21.604-.015-32.406.007-.835.002-.77-.457-.77-1.004.004-12.858.008-25.72-.002-38.582-.003-2.284-.013-4.574-.142-6.854-.203-3.555-1.958-6.237-4.912-8.17-.207-.136-.426-.255-.828-.499"/></g><g><path fill="#fefefe" d="M115.97 1.66h14.539c.985 0 .988.001.988.982v44.924c0 1.261.002 1.261 1.281 1.261 6.77 0 13.539.014 20.306-.015.744-.003 1 .178.978.954-.051 2.062-.039 4.127-.005 6.193.01.626-.205.806-.816.803a9130.912 9130.912 0 0 0-30.91.007c-.722 0-.867-.26-.864-.914.015-10.62.01-21.241.01-31.864 0-3.855-.1-7.715.023-11.566.166-5.231-1.96-8.477-5.53-10.765"/></g><g><path fill="#fefefe" d="M163.92 1.692c.316-.014.56-.037.801-.037 4.555-.002 9.11.012 13.664-.015.711-.004.94.188.94.918-.018 17.764-.018 35.529 0 53.291 0 .741-.248.923-.948.912-2.637-.035-5.277-.014-7.915-.014-1.073 0-1.075 0-1.075-1.058-.001-13.708.013-27.417-.014-41.125-.004-1.934-.037-3.893-.36-5.79-.476-2.804-2.154-4.913-4.494-6.499-.165-.112-.335-.214-.496-.33-.033-.024-.039-.086-.103-.253"/></g><g><path fill="#fefefe" d="M399.89 56.68c.828-1.945 1.601-3.775 2.38-5.6 6.918-16.209 13.846-32.416 20.749-48.63.258-.602.576-.815 1.218-.8 1.815.041 3.635.033 5.45.005.558-.011.846.179 1.073.69 4.15 9.39 8.32 18.77 12.486 28.153 3.662 8.25 7.328 16.493 10.992 24.743.197.447.382.902.611 1.445-.289.027-.498.064-.708.064-2.936.004-5.873-.012-8.81.017-.573.004-.826-.225-1.045-.72-2.164-4.886-4.357-9.76-6.514-14.65-.263-.596-.592-.785-1.233-.783-6.494.024-12.993.014-19.486.017-1.257 0-1.255 0-1.764 1.188-2.021 4.734-4.053 9.462-6.05 14.203-.23.543-.51.75-1.103.744-2.487-.03-4.975-.012-7.464-.016-.23 0-.46-.039-.782-.07m19.316-23.863h14.624l-7.61-17.296c-2.386 5.88-4.676 11.53-7.014 17.296"/></g><g><path fill="#fefefe" d="M373.59 1.654c4.8 0 9.73.015 14.657-.014.742-.004.779.349.779.915-.01 10.524-.006 21.048-.006 31.572 0 7.215 0 14.43-.003 21.644 0 .973-.001.976-1 .976h-7.988c-1.03 0-1.032-.003-1.032-1.02-.003-14.776-.01-29.554.004-44.333.002-2.576-.587-4.957-2.313-6.903-.941-1.065-2.101-1.936-3.098-2.837"/></g></g></g></svg>