<svg xmlns="http://www.w3.org/2000/svg" width="500" height="76" viewBox="0 0 500 76"><defs><clipPath id="3jg4a"><path d="M324.04.66h17.32v31.975h-17.32z"/></clipPath><clipPath id="3jg4b"><path d="M343.48 43.77h17.316v31.975H343.48z"/></clipPath></defs><g><g><g><path fill="#fff" d="M22.278 9.04H0v60.354h22.278V49.005h23.788V32.992H22.278v-7.94h26.283V9.04z"/></g><g><path fill="#fff" d="M84.122 20.737l28.317 48.661h-22.47l-2.249-4.99H64.45l-2.246 4.99H39.73l28.316-48.66-.04-.088.782-1.297 1.732-2.864L75.982 7.1l.102.17.103-.17 1.447 2.487 4.017 6.902 1.95 3.229.561.932zm-2.497 30.13l-5.54-12.292-.973 2.159-4.565 10.132z"/></g><g><path fill="#fff" d="M463.433 38.57l5.534 12.283H457.9zm0-31.31l-.101-.17-5.466 9.39-2.511 4.161.04.086-28.315 48.661h22.469l2.25-4.99h23.27l2.246 4.99h22.472l-28.316-48.66.038-.087-2.51-4.16-5.465-9.391z"/></g><g><g><path fill="#fff" d="M244.04 51.802c.064.399.117.812.155 1.235.046.526.08 1.064.08 1.626 0 .137-.012.27-.015.405-.014.444-.045.874-.1 1.295a11.882 11.882 0 0 1-1.137 3.781c-1.277 2.57-3.434 4.553-6.012 6.014a22.557 22.557 0 0 1-3.462 1.574 27.88 27.88 0 0 1-4.705 1.23c-.229.04-.459.078-.689.113a29.466 29.466 0 0 1-4.25.32H184.69V9.04h38.296a20.534 20.534 0 0 1 4.641.553c.374.088.752.167 1.118.273 1.49.43 2.892 1.028 4.203 1.732.303.16.605.321.894.495 1.25.752 2.384 1.61 3.398 2.543.243.224.483.445.71.679 1.038 1.054 1.914 2.185 2.588 3.35.177.302.326.608.475.916.647 1.34 1.025 2.7 1.09 4.022.008.134.032.273.032.407 0 .14-.015.267-.018.403-.01.496-.025.99-.068 1.46a17.59 17.59 0 0 1-.894 4.11c-.116.347-.241.686-.376 1.01a15.788 15.788 0 0 1-2.198 3.744c-.209.26-.417.518-.633.758-1.051 1.163-2.185 2.05-3.268 2.67a9.862 9.862 0 0 1-.92.468c-.802.356-1.539.544-2.156.57.422.003 1.308.195 2.425.625.308.12.636.26.976.417.236.108.483.232.73.363a17.227 17.227 0 0 1 3.664 2.568c.98.9 1.904 1.982 2.682 3.256.174.287.34.586.495.894.043.083.086.164.126.249a15.019 15.019 0 0 1 1.337 4.227zm-28.253 4.109c.056.002.127.002.177.003.87.018 1.882-.237 2.773-.804a4.734 4.734 0 0 0 1.695-1.875c.355-.703.575-1.556.575-2.577 0-1.255-.33-2.202-.838-2.916a4.173 4.173 0 0 0-.668-.724c-1.03-.875-2.403-1.193-3.537-1.211-.174-.002-.604-.005-1.178-.005-.403-.002-.874-.002-1.389-.002h-1.782l-4.152.007h-.683v10.107l.3-.001c.29-.002.776-.004 1.382-.009.626-.001 1.379-.005 2.169-.008l1.392-.002c.84 0 1.659 0 2.358.002.572.003 1.05.008 1.406.015zm-9.007-32.335v10.096h8.78c1.248 0 2.805-.655 3.72-2.186.17-.288.317-.604.438-.955a6.48 6.48 0 0 0 .33-2.108c0-.826-.176-1.515-.45-2.098a4.393 4.393 0 0 0-.532-.858c-1.122-1.413-2.883-1.89-3.507-1.89z"/></g><g><path fill="#fff" d="M175.358 53.505c.022.326.03.66.033.997 0 .055.003.106.003.16 0 .446-.028.875-.07 1.297a12.051 12.051 0 0 1-1.007 3.828 12.45 12.45 0 0 1-2.423 3.518c-.226.233-.465.46-.708.68-1.043.94-2.23 1.744-3.512 2.428a24.784 24.784 0 0 1-4.657 1.853c-.614.176-1.233.335-1.856.466a29.614 29.614 0 0 1-6.136.664H115.81V9.04h38.298c.058 0 .11.008.167.008.2.002.396.022.593.028.442.017.884.032 1.316.077 1.689.172 3.306.558 4.836 1.097a21.579 21.579 0 0 1 3.227 1.444c.571.313 1.126.647 1.657 1.003.279.186.547.381.812.58a19.716 19.716 0 0 1 3.099 2.834c.22.255.422.512.622.772.681.87 1.249 1.775 1.694 2.693.176.361.33.722.462 1.087.133.349.247.702.34 1.05l.016.072c.189.748.306 1.495.306 2.224 0 1.31-.125 2.528-.347 3.668-.13.654-.293 1.275-.484 1.871A16.392 16.392 0 0 1 170.9 33c-.175.293-.357.571-.544.846a14.95 14.95 0 0 1-2.821 3.115c-.264.218-.529.415-.792.6-1.465 1.029-2.892 1.575-3.967 1.638a1.636 1.636 0 0 0-.079.008c.023 0 .046 0 .07.002.681.018 2.412.473 4.382 1.553.288.157.583.331.876.516 1.099.688 2.23 1.565 3.27 2.668.225.233.44.481.653.736a14.522 14.522 0 0 1 2.24 3.697c.138.328.265.663.383 1.009.265.794.47 1.644.61 2.551.08.503.145 1.022.178 1.566zm-37.457-19.827h8.785c.41 0 .854-.076 1.297-.223.32-.106.642-.25.948-.442 1.071-.667 1.981-1.872 2.195-3.74.014-.144.028-.298.036-.45.007-.132.016-.261.016-.4 0-.328-.036-.631-.086-.922-.307-1.773-1.467-2.82-2.556-3.38a5.369 5.369 0 0 0-.994-.393 3.463 3.463 0 0 0-.856-.154h-8.785zm0 22.248l1.517-.006c.493-.004 1.071-.005 1.695-.007l1.387-.005h2.184c.505.002.976.003 1.383.007.415.001.765.006 1.018.011.387.009.804-.036 1.226-.139a5.072 5.072 0 0 0 1.018-.371c1.18-.57 2.24-1.64 2.633-3.306.09-.38.142-.793.155-1.234.002-.075.012-.141.012-.214 0-.275-.02-.534-.05-.78a5.11 5.11 0 0 0-.261-1.13c-.577-1.598-1.88-2.403-3.196-2.743a6.512 6.512 0 0 0-1.196-.192c-.116-.007-.231-.015-.34-.015h-.024c-.208-.002-.72-.005-1.395-.005a1734.081 1734.081 0 0 0-5.543.003h-.384l-1.385.002h-.454z"/></g><g><path fill="#fff" d="M318.415 66.742l2.04 2.654h-25.68l-.406-.588-.568-.823-.025-.036-2.402-3.475-.568-.821-2.43-3.509-.569-.823-2.425-3.51-.568-.822-1.224-1.767h-7.652v16.174H253.66V9.04h37.341a27.275 27.275 0 0 1 2.632.147l.305.038c.396.048.803.101 1.222.171 1.478.238 3.094.626 4.724 1.21a23.271 23.271 0 0 1 1.862.758 20.259 20.259 0 0 1 3.017 1.694c.271.187.541.381.806.585a16.752 16.752 0 0 1 2.988 2.947 16.545 16.545 0 0 1 2.215 3.798 19.693 19.693 0 0 1 .695 2.01c.44 1.538.716 3.246.794 5.144.015.359.031.715.031 1.087 0 .1-.013.19-.014.285 0 .101-.012.197-.014.295-.051 1.899-.33 3.617-.791 5.146-.108.357-.235.692-.361 1.03-.134.36-.27.715-.42 1.054a17.138 17.138 0 0 1-1.979 3.366c-.07.098-.137.205-.212.298a17.122 17.122 0 0 1-2.978 2.957l-.242.179c-1.275.948-2.412 1.503-3.078 1.685a1.71 1.71 0 0 1-.422.078h-.076l.183.24.605.785 2.58 3.357.605.787 1.23 1.6 1.35 1.757.604.785 2.58 3.358.604.786 2.58 3.355.607.788 2.58 3.356zm-34.612-29.116c.078 0 .154-.008.233-.011a5.366 5.366 0 0 0 1.203-.189c1.372-.38 2.535-1.298 3.318-2.614.173-.293.324-.604.458-.933.38-.939.599-2.017.599-3.207 0-.352-.03-.685-.073-1.011a7.005 7.005 0 0 0-.238-1.15 6.528 6.528 0 0 0-.15-.43c-.5-1.312-1.362-2.319-2.383-2.974a5.764 5.764 0 0 0-.909-.482c-.086-.035-.17-.063-.258-.094a5.307 5.307 0 0 0-1.8-.328h-7.862v13.423z"/></g><g><path fill="#fff" d="M420.72 46.964l-7.305-2.026-1.88-.52a12.377 12.377 0 0 1-5.794 5.87 12.207 12.207 0 0 1-5.337 1.228c-6.79 0-12.295-5.504-12.295-12.295 0-6.792 5.505-12.297 12.295-12.297 1.94 0 3.773.452 5.402 1.257a12.33 12.33 0 0 1 6.086 6.687l1.588-.62 7.275-2.852 9.47-3.708c-2.277-5.571-6.164-10.297-11.066-13.719a32.368 32.368 0 0 0-8.116-4.097 32.913 32.913 0 0 0-7.808-1.643 34.057 34.057 0 0 0-2.831-.129c-16.954 0-32.464 12.02-32.464 31.12 0 18.355 13.808 31.506 32.464 31.506A32.28 32.28 0 0 0 410.79 69a32.249 32.249 0 0 0 8.17-4.125c5.315-3.716 9.453-8.988 11.683-15.162z"/></g><g><path fill="#fff" d="M341.336 42.233c-.036-2.018-.273-3.685-.679-5.063a13.026 13.026 0 0 0-.355-1.034 10.244 10.244 0 0 0-.904-1.777 9.26 9.26 0 0 0-1.48-1.776 10.349 10.349 0 0 0-.754-.636 11.352 11.352 0 0 0-.639-.462c-.998-.669-2.071-1.189-3.146-1.69-.107-.05-.213-.103-.32-.153l-.628-.288c-1.302-.6-2.63-1.233-3.826-2.112a10.52 10.52 0 0 1-.772-.62 9.22 9.22 0 0 1-2.457-3.478 11.8 11.8 0 0 1-.334-.924h-1.012V33.078c0 .203.015.387.018.584.025 1.404.14 2.642.331 3.742.072.4.153.783.244 1.147.228.94.521 1.768.869 2.493a9.969 9.969 0 0 0 1.583 2.383c.972 1.078 2.1 1.85 3.293 2.493.031.019.064.033.097.052.305.162.611.316.924.468.426.207.855.41 1.282.606.872.404 1.775.863 2.654 1.398.284.172.566.352.842.546 1.115.778 2.136 1.743 2.959 2.978.182.277.37.55.531.858.222.427.426.88.597 1.37h1.096V42.731c0-.106-.009-.2-.009-.308 0-.065-.005-.126-.005-.19"/></g><g><path fill="#fff" d="M340.754 59.065c-.1-.373-.21-.727-.332-1.062-.144-.395-.3-.768-.47-1.115a9.407 9.407 0 0 0-1.8-2.547 10.38 10.38 0 0 0-.733-.657 13.368 13.368 0 0 0-1.992-1.323 30.705 30.705 0 0 0-1.745-.88c-.205-.097-.412-.191-.617-.289l-.331-.15c-1.303-.603-2.651-1.217-3.871-2.068-.27-.19-.532-.391-.79-.601a9.266 9.266 0 0 1-2.556-3.381c-.14-.316-.272-.65-.39-1.002-.022-.074-.052-.142-.075-.22h-1.012v10.858c0 .362.018.688.03 1.03.043 1.372.169 2.597.379 3.668.08.394.167.765.266 1.123.33 1.213.767 2.225 1.289 3.078.202.332.413.644.637.932.209.265.422.515.646.745.629.654 1.32 1.19 2.043 1.652.463.295.942.561 1.427.815.308.155.617.313.929.462.332.157.662.31.993.463.962.447 1.957.954 2.919 1.561.278.178.553.368.824.567 1.095.801 2.09 1.793 2.876 3.06.177.286.346.579.499.893.167.345.332.687.467 1.068h1.096V64.282l-.002-.053c-.003-2.063-.227-3.75-.604-5.164"/></g><g><g/><g clip-path="url(#3jg4a)"><path fill="#fff" d="M341.331 20.241c-.064-1.977-.334-3.606-.766-4.947a11.89 11.89 0 0 0-.376-1.015c-.64-1.488-1.498-2.588-2.483-3.453-.25-.22-.505-.43-.77-.621-1.192-.868-2.519-1.494-3.831-2.105a140.296 140.296 0 0 1-.952-.442c-1.297-.599-2.61-1.246-3.78-2.154-.257-.2-.505-.417-.749-.644-.96-.905-1.781-2.051-2.356-3.58a10.03 10.03 0 0 1-.216-.62h-1.012v10.858c0 .053.003.099.003.154a25.38 25.38 0 0 0 .287 3.81c.063.41.134.804.217 1.175.17.756.372 1.45.616 2.07.319.812.697 1.514 1.117 2.133.192.278.394.542.604.788.967 1.141 2.11 1.95 3.32 2.616.301.168.604.328.912.48l.123.06c.476.233.958.46 1.44.682.786.364 1.6.77 2.396 1.237.286.169.574.343.859.531 1.13.757 2.185 1.692 3.038 2.896.19.27.366.56.535.856.285.503.546 1.035.757 1.63h1.096V21.171c0-.249-.015-.476-.022-.714-.003-.073-.003-.146-.007-.217"/></g></g><g><path fill="#fff" d="M359.409 23.245c-1.588 3.758-4.755 5.061-7.633 6.397a52.947 52.947 0 0 0-1.645.79c-1.257.636-2.467 1.374-3.507 2.43a9.152 9.152 0 0 0-.65.74c-.817 1.025-1.477 2.33-1.916 4.022a16.568 16.568 0 0 0-.44 2.531c-.05.474-.083.972-.107 1.495-.011.356-.031.704-.031 1.083V54.194h1.094c.078-.217.18-.406.269-.61.053-.124.102-.246.159-.362a10.243 10.243 0 0 1 2.564-3.373c.252-.217.51-.422.772-.617a16.328 16.328 0 0 1 1.862-1.196c.654-.364 1.316-.69 1.959-.99 3.53-1.637 7.147-3.296 8.275-9.545.23-1.276.366-2.728.366-4.423V22.22h-1.012c-.111.364-.242.7-.38 1.025"/></g><g><g/><g clip-path="url(#3jg4b)"><path fill="#fff" d="M359.786 43.77c-1.414 4.563-4.887 5.969-8.013 7.42a41.93 41.93 0 0 0-2.015.986c-1.208.635-2.36 1.394-3.343 2.46-.218.237-.428.49-.629.761-.783 1.06-1.415 2.39-1.818 4.12a19.899 19.899 0 0 0-.399 2.662 24.88 24.88 0 0 0-.072 1.464c-.005.215-.017.413-.017.639V75.745h1.094c1.416-4.001 4.68-5.8 7.585-7.15 1.81-.838 3.644-1.686 5.155-3.153 2.034-1.973 3.482-5.07 3.482-10.814V43.77h-.467z"/></g></g><g><path fill="#fff" d="M355.72 6.034c-1.257.831-2.63 1.436-3.945 2.047-1.699.79-3.414 1.597-4.846 2.927-.032.028-.065.056-.095.086-.231.222-.46.458-.677.713-.846.997-1.543 2.264-2.015 3.92-.1.357-.192.726-.271 1.12-.083.406-.154.831-.212 1.283-.06.484-.105.99-.134 1.527a25.95 25.95 0 0 0-.045 1.515v11.46h1.096c.169-.485.373-.932.593-1.356.687-1.313 1.597-2.346 2.614-3.189.257-.213.526-.405.796-.596.351-.25.71-.485 1.078-.704.086-.052.174-.11.263-.162l.004-.001c.743-.43 1.5-.798 2.235-1.14 2.54-1.177 5.124-2.375 6.796-5.274 1.126-1.952 1.843-4.666 1.843-8.694V.66h-1.012c-.818 2.646-2.33 4.227-4.066 5.374"/></g></g></g></g></svg>