<svg xmlns="http://www.w3.org/2000/svg" width="298" height="294" viewBox="0 0 298 294"><defs><clipPath id="tzqsa"><path d="M0 .48h297.143v268.05H0z"/></clipPath><clipPath id="tzqsb"><path d="M126.86 282.72h12.084v10.643H126.86z"/></clipPath></defs><g><g><g><path fill="#fefefe" d="M29.687 116.107c-15.923-8.531-20.068-24.19-12.213-38.794 7.746-14.407 23.075-18.602 37.804-10.71 17.813 9.545 19.042 26.33 12.421 38.65-7.318 13.611-22.39 19.23-38.012 10.854m-3.519-33.754c-4.646 8.644 1.942 16.653 10.006 20.971 9.352 5.01 18.928 4.13 22.883-3.222 3.735-6.954-.412-15.446-10.266-20.727-7.561-4.05-18.133-5.364-22.623 2.978"/></g><g><path fill="#fefefe" d="M278.266 105.207l-42.706 11.665 3.663 13.38 42.71-11.667 4.35 15.883 10.35-2.83-12.37-45.138-10.35 2.826z"/></g><g><g/><g clip-path="url(#tzqsa)"><path fill="#fefefe" d="M297.143 148.367l-2.985 13.547-16.988-3.734c-.07 2.41-.604 5.87-1.232 8.737-2.722 12.332-9.665 24.431-24.006 21.28-4.192-.925-7.23-2.888-9.42-5.484l-33.686-6.647 9.06 18.823 4.064-3.65 36.771 40.84-10.33 9.27-28.154-31.264-3.85 1.85 14.3 42.602c-3.64 1.934-11.458 5.261-18.635 7.661-8.779 2.94-24.918 7.029-28.938-4.946-2.223-6.63 1.66-12.092 6.834-15.13l-.07-.212c-6.859 1.2-12.613-.405-15.76-5.192-4.722 10.044-17.34 12.97-34.895 9.012l-.194.88c-.774 3.524-.628 9.675 8.858 11.76 5.295 1.163 11.173.721 15.325-.791l.703 9.392c-4.505 1.552-11.962 2.335-20.455.47-17.207-3.778-19.77-15.77-17.173-27.555l4.247-19.274c.221-1 .427-1.993.623-2.978l-31.873 32.66-9.951-9.676 14.66-15.022-15.209-14.792-14.661 15.02-9.949-9.68 33.416-34.242c-.097-.34-.191-.68-.27-1.016-3.877 5.142-9.882 8.977-17.903 10.577-17.726 3.533-30.903-5.916-34.15-22.173-1.096-5.46-.721-10.55.851-15.04L0 150.18l3.206-36.171 10.917.962-1.984 22.354 43.878 3.877-.045.511c3.283-2.19 7.18-3.816 11.637-4.703 13.26-2.64 22.839 1.941 28.568 9.362-5.267-7.327-6.72-17.214-2.637-28.282.424-1.15.914-2.284 1.445-3.374-4.09-.93-7.942-2.857-11.326-5.914l-10.016 26.676-8.99-3.365 10.108-26.928 8.396 3.141a30.647 30.647 0 0 1-4.848-5.893c-4.775-7.537-5.766-14.94-4.062-21.647L46.145 40.307c2.955-2.87 9.531-8.244 15.75-12.548 7.611-5.268 21.965-13.69 29.169-3.31 3.988 5.745 1.785 12.072-2.332 16.43l.127.184c7.482-3.667 14.607-3.109 18.985 3.194 1.815 2.618 2.543 5.246 2.486 7.825a30.784 30.784 0 0 1 3.744-.214c-4.857-4.177-8.289-10.378-9.384-18.426-2.431-17.881 7.83-30.427 24.282-32.658C145.2-1.418 157.607 8.51 159.86 25.047c.976 7.165-.08 13.138-2.439 17.965l3.122.828 9.732-25.497c2.577-6.744 4.455-12.303 6.094-17.23l11.398 4.34-2.381 8.142.21.08c6.01-4.347 13.277-5.327 21.084-2.356 11.821 4.5 17.774 18.347 11.66 34.366-4.726 12.377-13.04 18.468-21.528 19.844.94 4.582.83 9.786-.666 15.4a40.803 40.803 0 0 1-2.652 7.21c9.563-2.12 19.742 4.462 28.99 18.054l.745-.508c1.888-1.297 4.22-3.622 4.274-7.183l-.926-1.088.772-.655c-.3-1.668-1.07-3.56-2.543-5.705-2.918-4.237-7.201-7.755-11.113-9.575l-.576.129-10.755-12.627 41.904-35.571 8.56 10.048-15.06 12.784c-6.622 5.623-11.316 9.163-17.46 13.785l.291.347c6.807-1.931 10.93-3.357 17.22-4.85l28.322-6.43 10.902 12.8-37.995 32.254c-1.03 6.253-5.491 11.278-11.11 15.138l-12.07 8.279 39.048 7.706-.725 3.654zm-62.898-60.918a34.51 34.51 0 0 1 1.42 2.252l5.886-4.996c6.71-5.698 10.028-8.07 18.31-14.358l-.296-.345c-6.744 2.175-10.926 3.355-16.727 4.728-5.056 1.18-10.756 2.52-16.557 3.863 2.695 2.281 5.466 5.227 7.964 8.856zM76.28 177.474c10.418-2.074 17.241-8.835 15.607-17.017-1.548-7.737-10.167-11.653-21.137-9.47-8.418 1.676-17.42 7.376-15.557 16.663 1.92 9.618 12.115 11.611 21.087 9.824zm78.96-17.802c2.125-1.805 5.912-3.974 10.856-6.77 7.03-4.141 9.976-8.807 8.913-15.831l-.268-1.783-4.095.62a18.584 18.584 0 0 1-2.444 1.983c-6.084 4.143-15.084 5.145-22.812 5.014-1.592 3.414-3.613 6.292-5.952 8.655 5.001 3.5 9.439 8.457 12.513 12.243a184.352 184.352 0 0 1 4.8 6.203l.03-.15zm-26.761 28.225l-3.628-4.465c-4.41-5.43-9.603-8.774-13.723-5.435-1.627 1.317-2.317 3.03-2.081 5.13l3.461 3.364-1.537 1.582a29.613 29.613 0 0 0 2.436 3.469c1.778 2.19 3.092 3.446 4.547 4.882zm-24.61-66.486c-3.67 9.945 1.454 18.56 10.922 21.925 6.514 2.398 12.259 1.55 16.484-1.515a139.94 139.94 0 0 1-5.196-.729l.747-14.883-9.433-15.248c-3.26 1.748-6.623 2.987-9.982 3.709-1.224 1.631-2.458 3.798-3.543 6.741zm43.716-7.584a35.075 35.075 0 0 0-2.364-.032l-1.467 5.514-2.742-.727-.22 4.404 8.542 1.45c.164 2.078-.04 5.281-.842 9.02a25.737 25.737 0 0 0 2.754-.171l-1.254-8.291 11.744-1.773c-.43-7.066-8.362-9.104-14.15-9.394zm-19.25 47.76c-4.736 3.84-2.471 9.85 3.007 16.594l3.7 4.554 12.454-10.093c-1.247-1.892-2.314-3.207-4.023-5.308-3.983-4.906-10.052-9.87-15.138-5.747zm59.192-42.258a23.21 23.21 0 0 1-4.36-4.756c-2.988-4.334-3.832-8.784-3.174-12.773a23.901 23.901 0 0 1-15.645 1.153c-6.66-1.768-11.473-6.075-13.07-11.048l-.22-.062-3.316 12.473a61.52 61.52 0 0 1 2.918.07c11.607.58 23.58 4.73 24.883 16.753zM155.342 75.77a21.164 21.164 0 0 0-.596 3.512c-.03 5.823 3.62 10.988 9.404 12.523 8.512 2.258 15.416-3.495 18.196-13.953 1.53-5.748 1.15-11.287-1.352-15.246-2.18-1.271-4.005-2.83-5.412-4.578a13.875 13.875 0 0 0-1.92-.677c-1.08-.285-2.179-.369-3.281-.354l-8.165 21.386zm40.543 25.83c-4.467 3.065-4.532 7.352-2.036 10.976 1.825 2.648 4.306 4.146 6.844 4.766l3.688-.556.129.843c.608-.064 1.21-.16 1.78-.32 1.029-.297 1.868-.872 2.707-1.447l6.233-4.28c-5.473-8.147-12.458-14.71-19.345-9.982zM177.34 39.743a13.132 13.132 0 0 0 1.542 7.8c.688.126 1.373.248 2.076.431a21.091 21.091 0 0 1 10.127 6.094c5.876-.432 10.917-5.159 13.86-12.872 3.459-9.062 1.845-18.13-6.492-21.304-5.381-2.046-11.833-.034-15.377 5.134-.616.975-1.266 2.054-1.669 3.105l-3.017 7.907a21.334 21.334 0 0 0-1.05 3.705zm-47.354-28.97c-9.734 1.321-12.358 11.35-11.129 20.397 1.433 10.5 7.765 17.72 16.044 16.6 7.835-1.063 12.283-9.404 10.779-20.467-1.155-8.486-6.298-17.801-15.694-16.53zm5.833 47.011c-1.7.228-3.367.302-5.004.268 2.204 1.88 4.226 4.202 6.01 7.011 2.212 3.491 3.561 6.967 4.227 10.376l4.443-16.688c.42-1.584.805-3.09 1.173-4.55a30.972 30.972 0 0 1-10.849 3.583zm-10.752 14.442c-4.542-7.16-11.488-10.864-19.164-9.322a38.106 38.106 0 0 1-2.281 2.704l19.52 30.777c7.112-6.492 7.241-15.777 1.925-24.16zM95.95 52.072c-.623-.9-1.338-1.575-2.133-2.056L97.16 55.4c-.077-1.108-.442-2.224-1.209-3.327zm-26.286-1.838l4.736-3.277a39.138 39.138 0 0 0 1.49-1.094l-1.925-3.002 7.902-4.991c.219-1.413-.07-2.817-1.006-4.168-2.51-3.612-7.015-3.374-13.7 1.25-2.32 1.606-3.676 2.821-5.22 4.163zM81.667 67.72A40.856 40.856 0 0 1 86.865 63l-6.43-10.04c-.422.273-.847.559-1.274.856l-4.827 3.34zm8.01 27.129c5.316 8.387 13.855 11.935 22.778 8.3L93.967 73.991c-.69.504-1.366.985-2.007 1.426a170.96 170.96 0 0 1-5.341 3.533c-1.394 5.115-.211 10.74 3.058 15.898zm12.145 64.093c.598 2.985.747 5.916.499 8.735 5.168-3.273 11.053-1.552 15.38 1.944l.173-.142c-2.297-3.897-3.328-7.773-2.846-11.283a35.888 35.888 0 0 1-4.624-1.334c-5.6-2.058-10.209-5.348-13.52-9.55 2.447 3.468 4.108 7.475 4.938 11.63zm9.737 58.902l7.134-7.312c-3.258-3.121-8.048-8.249-12.074-13.202a89.49 89.49 0 0 1-2.083-2.668l-8.185 8.387zm33.168-7.62l-.315 6.167.33.072c.723-.61 1.534-1.146 2.378-1.64l6.355-29.61-23.065 18.692 4.21 4.098zm17.067 20.72c.772-3.5-.256-6.054-2.27-7.668l-.39 1.815-11.465-2.45c-1.793.97-3.258 2.346-4.224 3.927-.547.918-.768 1.912-.984 2.901l-1.629 7.379c.209.047.413.09.619.134.856-3.962 4.544-6.628 9.287-5.611 3.288.702 5.362 2.978 5.94 5.688 2.566-1.054 4.426-2.97 5.116-6.114zm12.42-9.374c2.398-3.486 6.285-6.305 10.45-8.546l4.39-14.755c-7.309 2.254-14.024-1.029-21.195-7.346-.375-.34-.765-.702-1.162-1.076l-4.91 22.877c.144.03.28.04.422.07 5.94 1.306 9.92 4.665 12.005 8.776zm11.929 7.793c1.939 5.774 8.365 5.762 16.606 3.007l5.565-1.867-5.093-15.178c-2.214.5-3.815 1.039-6.387 1.899-.427.144-.859.297-1.29.461l-.907 4.679-8.834 4.24a6.745 6.745 0 0 0 .34 2.759zm11.33-21.62c3.391-1.106 6.833-2.095 9.786-2.91l-5.391-11.203-1.835.876zm11.534 46.08c2.675-.894 4.319-1.68 6.171-2.538l-4.306-12.83-5.46 1.827c-6.641 2.219-11.598 5.9-9.912 10.926 1.399 4.17 5.794 5.197 13.507 2.616zm-7.696-93.379l3.989.791-20.719-13.745c.015 7.639-5.1 13.088-13.256 18.082-2.173 1.284-4.9 2.732-7.651 4.334l6.986 1.49-.7 3.265c2.202 1.644 5.008 4.262 8.495 7.55 6.027 5.494 11.356 6.942 17.77 3.862l1.63-.78-6.057-12.586-.345-.067.091-.46-3.618-7.523 5.64-2.7.579-2.923 3.906.768 2.396-1.148zm19.653-17.73l-22.708-4.48.603-3.047-2.205-3.203-12.756 1.924.3 2.006 25.088 13.324 1.994 13.175 5.573 1.098zm6.532 22.897l10.194 2.014c-.142-5.083.583-10.354 1.58-14.884.457-2.07.966-4.11 1.494-6.121l-9.154-1.805zm39.626-3.287c.532-2.425.725-4.344.807-6.288l-18.312-4.026c-.606 1.713-1.105 3.451-1.713 6.206-1.41 6.386-1.038 14.667 6.464 16.314 7.83 1.723 11.44-6.26 12.754-12.206z"/></g></g><g><path fill="#fefefe" d="M258.886 242.55c-3.616 3.241-3.616 7.793-.897 10.81 2.955 3.11 7.326 3.586 10.852.417 3.445-3.092 3.606-7.631.738-10.82-2.717-3.02-7.251-3.498-10.693-.406"/></g><g><path fill="#fefefe" d="M8.46 183.46l.273-.079.941 1.102 7.929-2.327.19-1.437.276-.079 1.483 5.038-.276.082-.938-1.104-3.903 1.147-.004-.002-.003.004-4.016 1.18-.196 1.435-.276.081zm3.314 11.265l.278-.08.11-1.263 3.93-5.647 3.975 2.28.73.904.273-.08-1.047-3.57-.276.079-.179 1.226-5.133-2.77-.007.001-3.716 5.3z"/></g><g><path fill="#fefefe" d="M16.82 207.446l.256-.126.871.583 10.105-.566.676 1.359-6.492 7.59-.064 1.269-.259.129-2.23-4.48.256-.13 1.048.9 1.74-2.003-1.608-3.23-2.65.18.084 1.372-.253.129zm5.285 1.228l1.266 2.541 2.421-2.797z"/></g><g><path fill="#fefefe" d="M29.65 230.196l.23-.171 1.26.714 6.66-4.885-.31-1.413.23-.171 2.988 4.059c.7.95 1.11 1.824 1.23 2.62.121.799-.125 1.423-.74 1.875-.433.317-.934.441-1.503.372-.571-.072-1.135-.335-1.694-.796.477.875.708 1.666.686 2.377-.025.712-.306 1.267-.842 1.662a2.208 2.208 0 0 1-1.525.419c-.57-.045-1.16-.26-1.763-.647-.6-.385-1.157-.923-1.666-1.615zm6.173.35l-3.109 2.27.47.628c.439.596.922.972 1.455 1.128.532.158 1.047.052 1.548-.314.56-.406.824-.873.799-1.398-.025-.53-.279-1.118-.762-1.768zm3.503-2.572l-2.832 2.082.125.171c.396.54.831.885 1.305 1.035.475.146.946.05 1.419-.299.944-.691.966-1.648.067-2.872z"/></g><g><path fill="#fefefe" d="M50.17 244.615l.33-.328c.452.223.86.325 1.22.308.36-.02.633-.124.832-.315.34-.337.417-.808.235-1.416l-.186-.617.117-.164 1.078-.332c.255-.07.43-.05.529.052.08.074.146.206.216.392.121.466.144.902.072 1.311-.077.407-.261.754-.562 1.052a2.32 2.32 0 0 1-.923.533c-.383.124-.825.158-1.331.104-.507-.052-1.046-.246-1.627-.58"/></g><g><path fill="#fefefe" d="M60.334 262.775l-2.794-2.118.174-.228 1.244.223 4.453-1.51c-.547-.699-.832-1.34-.857-1.918-.025-.578.12-1.076.437-1.493.551-.721 1.256-1.054 2.123-.994.87.062 1.897.538 3.087 1.44l4.115 3.12-.172.227-1.398-.32-4.994 6.576.683 1.254-.171.228-4.048-3.064.174-.228 1.294.218 2.073-2.732-.712-.538zm5.932-1.989l2.432-3.2-.527-.4c-.618-.466-1.192-.686-1.723-.657-.534.035-.989.293-1.359.789-.37.48-.511.996-.42 1.542.088.543.433 1.044 1.041 1.505z"/></g><g><path fill="#fefefe" d="M79.11 275.324l.132-.253 1.45.084 3.807-7.322-.904-1.13.134-.253 4.808 2.492c1.112.577 1.885 1.227 2.312 1.946.434.722.434 1.498-.003 2.333a2.3 2.3 0 0 1-1.207 1.103c-.536.219-1.152.28-1.842.191-.696-.091-1.41-.327-2.15-.711l-1.031-.536-1.61 3.09 1.14 1.254-.131.255zm7.688-6.258L85 272.528l.45.228c.675.355 1.271.467 1.798.34.521-.126.921-.457 1.202-.996.315-.603.357-1.134.131-1.594-.223-.457-.7-.879-1.43-1.259z"/></g><g><path fill="#fefefe" d="M101.33 285.47l.084-.272 1.438-.171 2.461-7.875-1.085-.954.084-.278 4.935 1.542-.087.27-1.351.194-1.048 3.362 3.822 1.19 1.048-3.362-1-.927.084-.273 4.919 1.53-.084.275-1.423.176-2.459 7.877 1.068.95-.082.272-4.92-1.53.085-.277 1.353-.196 1.14-3.645-3.824-1.192-1.14 3.647 1.003.932-.087.27z"/></g><g><g/><g clip-path="url(#tzqsb)"><path fill="#fefefe" d="M130.337 292.459l-3.477-.429.032-.28 1.187-.432 3.09-3.545c-.827-.33-1.394-.736-1.706-1.225-.316-.488-.44-.989-.373-1.512.11-.898.551-1.54 1.334-1.924.78-.384 1.91-.486 3.39-.305l5.13.63-.035.285-1.366.424-1.01 8.191 1.224.744-.032.283-5.044-.617.035-.283 1.229-.464.417-3.401-.886-.112zm4.13-4.683l.491-4-.658-.079c-.77-.097-1.378.005-1.823.298-.444.294-.702.748-.782 1.365-.072.606.07 1.12.417 1.548.348.425.902.689 1.66.78z"/></g></g></g></g></svg>