<svg xmlns="http://www.w3.org/2000/svg" width="24" height="24" viewBox="0 0 24 24"><g><g><path fill="#fff" d="M18.125 4.493a1.378 1.378 0 1 1 0 2.756 1.378 1.378 0 0 1 0-2.756"/></g><g><path fill="#fff" d="M12.004 6.107a5.897 5.897 0 0 1 5.897 5.897 5.897 5.897 0 1 1-11.794 0 5.897 5.897 0 0 1 5.897-5.897m3.828 5.897a3.828 3.828 0 1 0-7.656 0 3.828 3.828 0 0 0 7.656 0"/></g><g><path fill="#fff" d="M23.42 7.27c.055 1.224.069 1.616.069 4.734 0 3.12-.014 3.51-.07 4.736-.055 1.222-.25 2.057-.533 2.787a5.872 5.872 0 0 1-3.359 3.36c-.73.283-1.566.477-2.787.533-1.225.055-1.616.069-4.736.069-3.118 0-3.51-.014-4.735-.069-1.222-.056-2.057-.25-2.787-.534a5.632 5.632 0 0 1-2.034-1.325 5.625 5.625 0 0 1-1.325-2.034C.84 18.797.645 17.962.59 16.74c-.057-1.225-.07-1.616-.07-4.736 0-3.118.013-3.51.07-4.734.055-1.223.249-2.057.532-2.788a5.638 5.638 0 0 1 1.326-2.034 5.623 5.623 0 0 1 2.034-1.325C5.212.84 6.047.646 7.269.59 8.494.534 8.886.52 12.004.52c3.12 0 3.51.014 4.736.07 1.221.056 2.057.25 2.787.533.766.288 1.46.74 2.034 1.325a5.634 5.634 0 0 1 1.325 2.034c.284.731.478 1.565.534 2.788m-2 4.742c0-3.07-.013-3.432-.067-4.644-.052-1.121-.238-1.73-.396-2.134a3.558 3.558 0 0 0-.859-1.322 3.556 3.556 0 0 0-1.32-.86c-.405-.157-1.013-.344-2.133-.395-1.211-.055-1.574-.067-4.64-.067-3.067 0-3.43.011-4.641.067-1.12.05-1.728.238-2.133.395-.499.185-.95.478-1.32.86-.382.371-.675.822-.86 1.322-.157.405-.344 1.013-.395 2.134-.055 1.212-.067 1.574-.067 4.644 0 3.068.012 3.432.067 4.644.051 1.12.238 1.728.395 2.133.185.5.478.951.86 1.322.37.382.82.676 1.32.86.405.157 1.013.344 2.133.395 1.21.056 1.573.067 4.64.067 3.067 0 3.43-.011 4.641-.067 1.12-.05 1.728-.238 2.133-.395a3.802 3.802 0 0 0 2.179-2.182c.158-.405.344-1.013.396-2.133.054-1.212.066-1.576.066-4.644"/></g></g></svg>