<svg xmlns="http://www.w3.org/2000/svg" width="48" height="27" viewBox="0 0 48 27"><defs><clipPath id="cp2wa"><path d="M40.16 19.213h7.393v7.395H40.16z"/></clipPath><clipPath id="cp2wb"><path d="M20.08.107h17.473v25.97H20.08z"/></clipPath></defs><g><g><g><g/><g clip-path="url(#cp2wa)"><path fill="#fff" d="M47.553 22.91a3.697 3.697 0 1 1-7.394.002 3.697 3.697 0 0 1 7.394-.001"/></g></g><g><path fill="#fff" d="M6.348 15.194c4.575-3.356 6.053-4.699 6.053-7.148 0-1.463-.74-3.736-3.49-3.736-2.874 0-3.686 1.873-3.704 4.796H.503c0-5.982 3.113-9 8.173-9 5.76 0 8.762 3.534 8.762 8.11 0 1.711-.4 4.721-4.39 7.584-1.505 1.078-6.006 4.006-6.491 5.34h10.916v4.378H0c0-5.37 3.53-8.257 6.348-10.324"/></g><g><g/><g clip-path="url(#cp2wb)"><path fill="#fff" d="M24.963 17.645c0 3.059 1.493 4.267 3.779 4.267 1.933 0 3.633-1.278 3.633-3.764 0-2.86-1.88-3.74-5.633-3.74v-3.626c3.871 0 5.022-1.288 5.022-3.414 0-1.989-1.273-3.24-3.218-3.24-1.657 0-3.374.768-3.374 4.072h-4.638c.255-5.918 3.681-8.093 8.169-8.093 4.775 0 8.065 2.632 8.065 6.862 0 1.612-.625 4.011-3.069 5.043 1.24.332 3.854 2.391 3.854 5.964 0 3.328-1.945 8.1-8.798 8.1-5.46 0-8.675-3.085-8.675-8.431z"/></g></g></g></g></svg>