<svg xmlns="http://www.w3.org/2000/svg" width="103" height="57" viewBox="0 0 103 57"><defs><clipPath id="kijca"><path d="M86.553 41.171h15.935v15.847H86.553z"/></clipPath><clipPath id="kijcb"><path d="M43.277.229h37.656v55.65H43.277z"/></clipPath></defs><g><g><g><g/><g clip-path="url(#kijca)"><path fill="#e01f1d" d="M102.488 49.095c0 4.376-3.567 7.923-7.967 7.923-4.4 0-7.968-3.547-7.968-7.923 0-4.376 3.567-7.924 7.968-7.924 4.4 0 7.967 3.548 7.967 7.924"/></g></g><g><path fill="#e01f1d" d="M13.681 32.558c9.86-7.191 13.045-10.069 13.045-15.316 0-3.135-1.593-8.006-7.52-8.006-6.195 0-7.946 4.014-7.984 10.277H1.084C1.084 6.693 7.793.229 18.698.229c12.415 0 18.885 7.572 18.885 17.378 0 3.665-.861 10.116-9.464 16.25-3.24 2.31-12.942 8.584-13.988 11.445H37.66v9.38H0c0-11.506 7.608-17.694 13.681-22.124"/></g><g><g/><g clip-path="url(#kijcb)"><path fill="#e01f1d" d="M53.8 37.81c0 6.555 3.219 9.145 8.145 9.145 4.165 0 7.83-2.739 7.83-8.066 0-6.128-4.053-8.014-12.141-8.014v-7.77c8.344 0 10.823-2.76 10.823-7.316 0-4.262-2.743-6.945-6.934-6.945-3.572 0-7.272 1.648-7.272 8.728h-9.997C44.804 4.889 52.19.229 61.861.229c10.291 0 17.382 5.64 17.382 14.706 0 3.452-1.348 8.594-6.614 10.805 2.673.712 8.304 5.124 8.304 12.78 0 7.132-4.19 17.359-18.96 17.359-11.769 0-18.696-6.612-18.696-18.069z"/></g></g></g></g></svg>