<svg xmlns="http://www.w3.org/2000/svg" width="82" height="46" viewBox="0 0 82 46"><g><g clip-path="url(#clip-50CEFF07-814E-B046-154C-507695E40467)"><path fill="#fff" d="M81.237 39.006c0 3.476-2.827 6.295-6.315 6.295-3.488 0-6.315-2.819-6.315-6.295 0-3.477 2.827-6.295 6.315-6.295 3.488 0 6.315 2.818 6.315 6.295"/></g><g><path fill="#fff" d="M10.845 25.867c7.814-5.713 10.34-8 10.34-12.169 0-2.49-1.263-6.36-5.961-6.36-4.91 0-6.299 3.19-6.329 8.165H.86C.859 5.318 6.177.182 14.82.182c9.841 0 14.97 6.016 14.97 13.807 0 2.912-.683 8.037-7.502 12.91-2.569 1.836-10.26 6.82-11.088 9.093h18.65v7.453H0c0-9.142 6.03-14.058 10.845-17.578"/></g><g clip-path="url(#clip-2AAD607E-3792-092E-1018-12FEB71CF227)"><path fill="#fff" d="M42.645 30.04c0 5.208 2.551 7.265 6.456 7.265 3.302 0 6.206-2.175 6.206-6.408 0-4.869-3.212-6.367-9.623-6.367v-6.174c6.614 0 8.579-2.192 8.579-5.811 0-3.387-2.174-5.518-5.497-5.518-2.83 0-5.764 1.309-5.764 6.934h-7.924C35.514 3.884 41.368.18 49.034.18c8.158 0 13.778 4.481 13.778 11.685 0 2.743-1.068 6.827-5.243 8.584 2.12.566 6.583 4.072 6.583 10.155 0 5.665-3.322 13.79-15.03 13.79-9.327 0-14.819-5.252-14.819-14.355z"/></g></g></svg>