<svg xmlns="http://www.w3.org/2000/svg" width="592" height="59" viewBox="0 0 592 59"><defs><clipPath id="1x5ra"><path d="M539.49.93h52.102v57.113H539.49z"/></clipPath></defs><g><g><g><path fill="#fefefe" d="M49.557 36.178c-.256-6.864-.51-15.167-.51-23.472h-.254c-1.777 7.29-4.15 15.422-6.351 22.115L35.494 57.11h-10.08l-6.1-22.115c-1.865-6.697-3.813-14.83-5.166-22.288h-.171c-.34 7.712-.593 16.523-1.017 23.642l-1.016 21.691H0L3.641.93H20.84l5.59 19.066c1.78 6.607 3.558 13.724 4.826 20.421h.256c1.61-6.61 3.558-14.153 5.422-20.508L43.033.93H59.89l3.137 57.11H50.404z"/></g><g><path fill="#fefefe" d="M85.984 43.385l-4.067 14.658H68.53L85.984.93h16.943l17.704 57.113h-13.894l-4.405-14.658zm14.485-9.666L96.91 21.602c-1.016-3.387-2.032-7.621-2.879-11.009h-.17c-.848 3.388-1.695 7.708-2.625 11.01L87.85 33.718z"/></g><g><path fill="#fefefe" d="M128.25 58.043V.93h15.078l11.863 20.931c3.387 6.016 6.778 13.133 9.319 19.574h.254c-.847-7.544-1.101-15.254-1.101-23.813V.93h11.86v57.113h-13.554l-12.2-22.03c-3.387-6.105-7.115-13.474-9.91-20.168l-.256.083c.337 7.544.507 15.591.507 24.913v17.202z"/></g><g><path fill="#fefefe" d="M199.57.93v32.876c0 9.832 3.728 14.831 10.334 14.831 6.778 0 10.506-4.745 10.506-14.83V.93h12.878v32.03c0 17.625-8.894 26.013-23.806 26.013-14.4 0-22.872-7.964-22.872-26.183V.93z"/></g><g><path fill="#fefefe" d="M244.46.93h34.903v10.592h-21.94v13.05h20.498V35.08h-20.499v22.962H244.46z"/></g><g><path fill="#fefefe" d="M296.734 43.385l-4.067 14.658H279.28L296.734.93h16.943l17.704 57.113h-13.894l-4.405-14.658zm14.485-9.666l-3.557-12.117c-1.018-3.387-2.034-7.621-2.881-11.009h-.17c-.846 3.388-1.695 7.708-2.625 11.01L298.6 33.718z"/></g><g><path fill="#fefefe" d="M378.819 56.434c-2.371 1.184-7.708 2.458-14.654 2.458-19.74 0-29.905-12.288-29.905-28.558C334.26 10.846 348.154 0 365.435 0c6.692 0 11.773 1.355 14.061 2.54l-2.625 10.254c-2.627-1.1-6.27-2.118-10.843-2.118-10.253 0-18.215 6.184-18.215 18.893 0 11.443 6.779 18.645 18.3 18.645 3.897 0 8.217-.848 10.758-1.866z"/></g><g><path fill="#fefefe" d="M399.483 11.776H384.15V.93h43.881v10.846h-15.587v46.267h-12.96z"/></g><g><path fill="#fefefe" d="M447.762.93v32.876c0 9.83 3.728 14.831 10.334 14.831 6.778 0 10.508-4.745 10.508-14.83V.93h12.875v32.03c0 17.625-8.895 26.013-23.803 26.013-14.402 0-22.876-7.964-22.876-26.183V.93z"/></g><g><path fill="#fefefe" d="M492.66 1.696C496.811 1.02 502.993.51 509.858.51c8.472 0 14.399 1.272 18.469 4.491 3.387 2.713 5.249 6.694 5.249 11.947 0 7.287-5.166 12.286-10.078 14.067v.254c3.978 1.61 6.18 5.423 7.623 10.678 1.777 6.44 3.555 13.897 4.658 16.1h-13.216c-.928-1.612-2.287-6.272-3.982-13.305-1.523-7.117-3.979-9.065-9.233-9.151h-3.897v22.455H492.66zm12.788 24.573h5.085c6.44 0 10.253-3.218 10.253-8.218 0-5.255-3.556-7.883-9.49-7.964-3.135 0-4.914.254-5.848.422z"/></g><g><g/><g clip-path="url(#1x5ra)"><path fill="#fefefe" d="M556.944 43.385l-4.067 14.658H539.49L556.944.93h16.944l17.705 57.113h-13.894l-4.404-14.658zm14.481-9.666l-3.556-12.117c-1.016-3.387-2.03-7.621-2.876-11.009h-.17c-.848 3.388-1.696 7.708-2.623 11.01l-3.387 12.116z"/></g></g></g></g></svg>