<svg xmlns="http://www.w3.org/2000/svg" width="44" height="65" viewBox="0 0 44 65"><defs><clipPath id="ezjza"><path d="M38.12 14.41h5.545v5.546H38.12z"/></clipPath><clipPath id="ezjzb"><path d="M23.06.08h13.104v19.478H23.06z"/></clipPath></defs><g><g><g><g><g/><g clip-path="url(#ezjza)"><path fill="#e01f1d" d="M43.665 17.183a2.773 2.773 0 1 1-5.545 0 2.773 2.773 0 0 1 5.545 0"/></g></g><g><path fill="#e01f1d" d="M12.761 11.395c3.431-2.517 4.54-3.524 4.54-5.36 0-1.098-.555-2.803-2.617-2.803-2.156 0-2.766 1.406-2.779 3.597H8.377c0-4.486 2.335-6.749 6.13-6.749 4.32 0 6.572 2.65 6.572 6.082 0 1.283-.3 3.54-3.294 5.688-1.127.808-4.504 3.004-4.867 4.006h8.187v3.283H8c0-4.027 2.647-6.193 4.761-7.744"/></g><g><g/><g clip-path="url(#ezjzb)"><path fill="#e01f1d" d="M26.722 13.234c0 2.294 1.12 3.2 2.834 3.2 1.45 0 2.725-.958 2.725-2.823 0-2.145-1.41-2.805-4.225-2.805v-2.72c2.904 0 3.767-.965 3.767-2.56 0-1.492-.955-2.43-2.414-2.43-1.242 0-2.53.576-2.53 3.054H23.4c.192-4.439 2.761-6.07 6.127-6.07 3.582 0 6.05 1.974 6.05 5.147 0 1.209-.47 3.008-2.303 3.782.93.25 2.89 1.794 2.89 4.473 0 2.496-1.458 6.076-6.598 6.076-4.095 0-6.506-2.314-6.506-6.324z"/></g></g></g></g><g><g><g><path fill="#e01f1d" d="M22 42.083a4.585 4.585 0 0 1-4.583-4.583A4.585 4.585 0 0 1 22 32.917a4.585 4.585 0 0 1 4.583 4.583A4.585 4.585 0 0 1 22 42.083zm0-17.416c-7.095 0-12.833 5.738-12.833 12.833C9.167 47.125 22 61.333 22 61.333S34.833 47.125 34.833 37.5c0-7.095-5.738-12.833-12.833-12.833z"/></g><g/></g></g></g></svg>