<svg xmlns="http://www.w3.org/2000/svg" width="426" height="99" viewBox="0 0 426 99"><defs><clipPath id="aanka"><path d="M0 18.62h55.05v80.248H0z"/></clipPath><clipPath id="aankb"><path d="M0 98.868h425.26V0H0z"/></clipPath></defs><g><g><g><g/><g clip-path="url(#aanka)"><path fill="#fefefe" d="M14.673 98.868H0v-79h14.206v8.373c1.606-2.461 3.315-4.403 5.13-5.824 3.318-2.53 7.262-3.797 11.836-3.797 6.666 0 12.312 2.445 16.939 7.334 4.626 4.889 6.94 12.064 6.94 21.529 0 9.985-2.263 17.598-6.784 22.832-4.52 5.236-10.342 7.852-17.464 7.852-4.54 0-8.31-1.126-11.31-3.38-1.643-1.248-3.249-3.069-4.82-5.459zm1.058-59.653c-1.052 2.705-1.578 6.137-1.578 10.299 0 6.585 1.769 11.214 5.306 13.883 2.1 1.562 4.59 2.342 7.466 2.342 4.17 0 7.35-1.593 9.542-4.785 2.19-3.19 3.287-7.436 3.287-12.742 0-4.368-1.009-8.234-3.023-11.597-2.017-3.363-5.284-5.045-9.803-5.045-5.434 0-9.165 2.548-11.197 7.645z"/></g></g><g><path fill="#fefefe" d="M80.281 31.043l18.002-.133.001-11.04H65.35v56.687h14.931z"/></g><g><path fill="#fefefe" d="M132.47 78.482c-9.747 0-17.013-2.953-21.8-8.858-4.787-5.908-7.18-13.016-7.18-21.334 0-8.17 2.393-15.256 7.18-21.25 4.787-5.993 12.053-8.99 21.8-8.99 9.749 0 17.015 2.997 21.803 8.99 4.786 5.994 7.179 13.08 7.179 21.25 0 8.318-2.393 15.426-7.18 21.334-4.787 5.905-12.053 8.858-21.801 8.858m-10.068-43.301c-2.343 3.063-3.512 7.434-3.512 13.11 0 5.68 1.17 10.059 3.512 13.141 2.342 3.08 5.68 4.621 10.016 4.621s7.665-1.54 9.99-4.62c2.322-3.083 3.487-7.462 3.487-13.143 0-5.675-1.165-10.046-3.487-13.11-2.325-3.062-5.654-4.596-9.99-4.596s-7.674 1.534-10.016 4.597"/></g><g><path fill="#fefefe" d="M186.847 76.557V31.001h18.109v45.556h14.93v-45.45l18.004-.064v45.514h15.194l.102-56.687H171.81v56.687z"/></g><g><path fill="#fefefe" d="M280.911 76.555H266.29V0h14.83v27.253c1.884-2.635 3.962-4.647 6.231-6.032 2.689-1.736 6.11-2.602 10.263-2.602 7.507 0 13.38 2.687 17.622 8.06 4.241 5.376 6.363 12.31 6.363 20.803 0 8.807-2.093 16.107-6.277 21.897-4.181 5.789-10.024 8.684-17.518 8.684-4.707 0-8.49-.936-11.348-2.808-1.71-1.11-3.558-3.052-5.545-5.826zm1.365-37.653c-1.049 2.601-1.573 5.964-1.573 10.09 0 4.853 1.084 8.876 3.253 12.064 2.169 3.19 5.472 4.784 9.916 4.784 3.845 0 6.835-1.542 8.968-4.627 2.134-3.087 3.202-7.142 3.202-12.17 0-4.022-.526-7.35-1.575-9.985-1.993-4.993-5.665-7.489-11.016-7.489-5.42 0-9.146 2.444-11.175 7.333z"/></g><g/><g clip-path="url(#aankb)"><path fill="#fefefe" d="M364.82 31.043h-33.66V19.87h48.367v56.479H331.19l.04-31.635 33.63.027zm-19.844 36.029h19.772V54.159h-19.772z"/></g><g clip-path="url(#aankb)"><path fill="#fefefe" d="M407.263 49.507c0-4.542.57-7.905 1.715-10.09 2.05-3.883 6.053-5.825 12.021-5.825a40.285 40.285 0 0 1 4.265.26V18.665a49.891 49.891 0 0 1-1.274-.076 7.641 7.641 0 0 0-.7-.029c-4.443 0-8.051 1.165-10.825 3.487-1.7 1.387-3.694 3.971-5.983 7.748v-9.882H392.33v56.689h14.933z"/></g></g></g></svg>