<svg xmlns="http://www.w3.org/2000/svg" width="88" height="70" viewBox="0 0 88 70"><g><g><path fill="#ff5957" d="M50.656 29.503a4.83 4.83 0 0 1 4.838 4.827v7.452h-6.226v22.614H38.715V41.782h-6.227V34.33c0-2.66 2.172-4.827 4.837-4.827zm-.878-18.127c0 3.19-2.58 5.764-5.779 5.764a5.758 5.758 0 0 1-5.786-5.764c0-3.19 2.586-5.762 5.786-5.762a5.761 5.761 0 0 1 5.78 5.762zm-17.193 0c0 6.264 5.137 11.377 11.42 11.377 6.274 0 11.412-5.12 11.412-11.377C55.417 5.121 50.279 0 44.004 0c-6.29 0-11.42 5.105-11.42 11.376zm38.28-5.762a5.76 5.76 0 0 1 5.777 5.762c0 3.19-2.579 5.764-5.777 5.764a5.757 5.757 0 0 1-5.786-5.764c0-3.19 2.587-5.762 5.786-5.762zm-11.416 5.762c0 6.264 5.136 11.377 11.416 11.377 6.273 0 11.407-5.12 11.407-11.377C82.272 5.121 77.138 0 70.865 0c-6.289 0-11.416 5.105-11.416 11.376zm4.744 12.512c-1.885 0-3.65.501-5.187 1.379a12.39 12.39 0 0 1 3.185 4.67 4.805 4.805 0 0 1 2.002-.434h13.336a4.83 4.83 0 0 1 4.84 4.826v7.45h-6.23v22.607H65.581V41.779H63.01v7.487H59.95V70h21.82V47.394H88V34.329c0-5.74-4.715-10.441-10.47-10.441zM22.919 11.376c0 3.19-2.579 5.764-5.777 5.764a5.757 5.757 0 0 1-5.786-5.764c0-3.19 2.587-5.762 5.786-5.762a5.76 5.76 0 0 1 5.777 5.762zm-17.193 0c0 6.264 5.136 11.377 11.416 11.377 6.273 0 11.407-5.12 11.407-11.377C28.549 5.121 23.415 0 17.142 0 10.853 0 5.726 5.105 5.726 11.376zm4.744 12.512C4.706 23.888 0 28.582 0 34.328v13.066h6.227V70h21.82V49.266h-3.065v-7.487h-2.566v22.607H11.858V41.779H5.631v-7.45c0-2.66 2.17-4.826 4.839-4.826h13.336c.71 0 1.389.155 1.995.428a12.381 12.381 0 0 1 3.184-4.664 10.39 10.39 0 0 0-5.179-1.38zm26.854 0c-5.76 0-10.466 4.694-10.466 10.44v13.066h6.227V70h21.81V47.394h6.229V34.329c0-5.74-4.713-10.441-10.467-10.441z"/></g></g></svg>