<svg xmlns="http://www.w3.org/2000/svg" width="446" height="249" viewBox="0 0 446 249"><g><g clip-path="url(#clip-197ACE32-0118-4AFC-BF2D-B1616A6C34CE)"><path fill="#fefefe" d="M338.954 45.053c-.359 1.393-.717 2.789-1.073 4.184a469.2 469.2 0 0 0-15.646-3.682l.927-4.218a432.23 432.23 0 0 1 4.08-.266 670.586 670.586 0 0 1 18.796-25.725c2.977.7 5.948 1.427 8.915 2.183a694.211 694.211 0 0 1 3.326 31.677c1.096.725 2.19 1.456 3.282 2.19-.43 1.374-.857 2.749-1.284 4.125a456.835 456.835 0 0 0-16.312-4.694c.379-1.39.754-2.779 1.131-4.17 1.398-.021 2.8-.034 4.203-.038a622.577 622.577 0 0 0-.255-3.934 464.349 464.349 0 0 0-11.676-3.045 805.854 805.854 0 0 0-2.198 3.243c1.267.718 2.527 1.441 3.784 2.17zm8.784-20.4a714.878 714.878 0 0 0-7.21 10.303c2.736.688 5.468 1.398 8.194 2.136a740.055 740.055 0 0 0-.984-12.44zM217.421 138.31c-.527 0-.87-.183-1.028-.548-.158-.366-.235-1.435-.235-3.21V119.64c0-1.571.083-2.573.252-3.009.17-.433.519-.652 1.044-.652.538 0 .882.204 1.028.615.146.406.218 1.423.218 3.046v15.143c0 1.494-.083 2.459-.245 2.884-.163.429-.509.643-1.034.643zm18.36 0c-.526 0-.868-.183-1.025-.548-.158-.366-.237-1.435-.237-3.21V119.64c0-1.571.085-2.573.254-3.009.169-.433.517-.652 1.044-.652.538 0 .88.204 1.026.615.146.406.22 1.423.22 3.046v15.143c0 1.494-.083 2.459-.245 2.884-.165.429-.509.643-1.036.643zm-15.078 32.684s-36.026-17.479-36.026-29.857v-39.784l36.12-11.607 35.94 11.607v39.784c0 12.85-36.034 29.857-36.034 29.857zm6.728-38.119c0 2.15.142 3.723.423 4.708.28.988.754 1.93 1.421 2.823.667.894 1.561 1.55 2.683 1.971 1.123.423 2.532.633 4.228.633 1.286 0 2.449-.2 3.489-.604 1.042-.402 1.93-1.064 2.668-1.979.735-.92 1.22-1.91 1.454-2.967.236-1.058.353-2.743.353-5.06v-10.192c0-2.314-.109-4.004-.326-5.06a7.33 7.33 0 0 0-1.238-2.85c-.608-.842-1.525-1.556-2.75-2.142-1.23-.585-2.62-.879-4.175-.879-1.907 0-3.533.423-4.869 1.265-1.34.843-2.234 1.964-2.684 3.36-.452 1.396-.677 3.5-.677 6.306zm-18.361 0c0 2.15.14 3.723.423 4.708.28.988.752 1.93 1.42 2.823.666.894 1.56 1.55 2.681 1.971 1.124.423 2.535.633 4.23.633 1.285 0 2.448-.2 3.49-.604 1.04-.402 1.93-1.064 2.666-1.979.737-.92 1.223-1.91 1.456-2.967.236-1.058.35-2.743.35-5.06v-10.192c0-2.314-.106-4.004-.323-5.06a7.362 7.362 0 0 0-1.238-2.85c-.608-.842-1.525-1.556-2.753-2.142-1.227-.585-2.62-.879-4.174-.879-1.907 0-3.529.423-4.869 1.265-1.34.843-2.234 1.964-2.684 3.36-.45 1.396-.675 3.5-.675 6.306zm-13.837-12.554h.703c1.636 0 2.692.123 3.165.367.474.245.763.606.87 1.085.104.48.156 1.9.156 4.267v16.385h7.088v-30.56h-4.177c-1.777 2.468-4.378 4.098-7.805 4.891zm107.623-50.612c-3.257-.6-6.519-1.16-9.784-1.682a6.221 6.221 0 0 0-.021 2.094c.112.645.35 1.226.712 1.74.36.513.846.946 1.452 1.302.606.356 1.353.608 2.24.762a6.222 6.222 0 0 0 2.077.023c.66-.11 1.204-.277 1.629-.498.19.366.377.735.566 1.103-.598.54-1.366.912-2.307 1.12-.94.21-1.987.215-3.143.017-1.212-.204-2.251-.55-3.124-1.033-.873-.478-1.574-1.074-2.103-1.773a6.01 6.01 0 0 1-1.075-2.421c-.188-.91-.198-1.895-.03-2.95.361-2.282 1.267-3.919 2.731-4.905 1.464-.983 3.353-1.29 5.652-.898.76.127 1.491.342 2.191.64.7.297 1.295.693 1.791 1.186.494.494.854 1.091 1.079 1.8.225.707.246 1.535.062 2.483a7.931 7.931 0 0 1-.23.905c-.1.315-.224.643-.365.985zm-8.767-4.986c-.285.554-.531 1.264-.731 2.123 2.26.36 4.518.744 6.773 1.14a7.084 7.084 0 0 0 .227-.907c.208-1.12.123-2.056-.256-2.804-.382-.752-1.092-1.217-2.134-1.394-.59-.1-1.12-.108-1.59-.029-.474.08-.9.27-1.282.577-.384.304-.72.736-1.007 1.294zm-118.135 7.48l-.156-1.286 2.052-.232c-.43-3.643-.86-7.285-1.287-10.927-.705.077-1.407.157-2.11.24-.052-.43-.104-.858-.159-1.286 2.334-.27 4.67-.522 7.008-.754l.137 1.286c-.627.062-1.255.127-1.883.193l.463 4.192c.334-.069.728-.152 1.183-.252.454-.098 1.103-.187 1.947-.27 1.73-.167 3.114.028 4.149.583 1.032.547 1.607 1.504 1.728 2.864.065.721-.037 1.365-.304 1.933a4.277 4.277 0 0 1-1.19 1.494c-.53.427-1.173.771-1.928 1.031-.755.26-1.602.438-2.542.53-.553.056-1.2.104-1.938.145-.74.042-1.507.107-2.298.192-.957.104-1.914.213-2.872.323zm5.16-7.645a8.38 8.38 0 0 0-.974.204l.63 5.69c.26-.012.531-.02.81-.023.282-.002.55-.016.809-.044 1.184-.116 2.086-.462 2.711-1.041.626-.58.888-1.425.778-2.54-.05-.516-.184-.94-.405-1.264a2.281 2.281 0 0 0-.84-.757c-.34-.175-.729-.29-1.17-.341a6.217 6.217 0 0 0-1.366-.01c-.319.035-.648.074-.983.126zm174.844 11.54c.823.612 1.427 1.304 1.818 2.071.39.77.585 1.616.588 2.536.002.917-.171 1.884-.517 2.9-.367 1.082-.858 1.98-1.468 2.701a6.15 6.15 0 0 1-2.123 1.633c-.804.369-1.693.563-2.672.586-.977.016-2.008-.14-3.093-.474-1.212-.369-2.212-.844-3.003-1.432-.796-.588-1.398-1.26-1.812-2.02a5.716 5.716 0 0 1-.681-2.502c-.04-.915.094-1.882.4-2.91.325-1.09.787-2.012 1.389-2.758.604-.745 1.306-1.31 2.116-1.697.808-.384 1.716-.59 2.722-.617 1.004-.025 2.062.13 3.166.469 1.291.392 2.347.902 3.17 1.513zm-.659 4.248c.06-.736-.006-1.41-.2-2.023a3.766 3.766 0 0 0-.996-1.602c-.473-.452-1.115-.806-1.928-1.052-1.22-.373-2.334-.219-3.328.458-.998.677-1.794 1.994-2.393 3.944a10.008 10.008 0 0 0-.433 2.281c-.046.72.04 1.39.256 1.994a4.051 4.051 0 0 0 1.067 1.602c.494.465 1.163.827 2.007 1.085 1.06.321 2.072.15 3.045-.52.976-.676 1.784-1.97 2.42-3.89.26-.788.423-1.548.483-2.277zm-80.765-19.009c.525-.86 1.204-1.512 2.04-1.952.836-.44 1.884-.583 3.14-.427 1.883.238 3.273.957 4.157 2.138.883 1.183 1.146 2.964.8 5.335-.165 1.13-.486 2.119-.96 2.98-.474.858-1.074 1.56-1.8 2.104a6.577 6.577 0 0 1-2.494 1.145c-.936.217-1.955.26-3.06.125a17.453 17.453 0 0 1-.975-.145 8.44 8.44 0 0 1-.777-.171 5.218 5.218 0 0 1-.686-.236c-.22-.096-.448-.2-.677-.312-.16 1.354-.321 2.706-.484 4.06.675.077 1.349.157 2.024.238-.052.427-.106.856-.16 1.283-2.3-.27-4.598-.53-6.901-.767.046-.427.092-.856.135-1.285.678.069 1.353.14 2.028.215l1.8-16.078a719.63 719.63 0 0 0-2.106-.222l.135-1.286c1.707.173 3.412.358 5.115.554-.107.898-.215 1.798-.321 2.702.008 0 .019 0 .027.002zm3.839-.797c-1.022-.125-1.865.04-2.525.493-.66.45-1.178 1.142-1.555 2.073l-.897 7.53c.343.264.735.462 1.178.595.441.127 1.04.238 1.797.33.68.083 1.307.01 1.881-.223a4.143 4.143 0 0 0 1.526-1.084c.441-.487.812-1.096 1.107-1.812.298-.72.51-1.53.633-2.436a9.564 9.564 0 0 0 .081-2.04c-.047-.622-.187-1.172-.422-1.647a2.989 2.989 0 0 0-1.037-1.177c-.458-.313-1.049-.513-1.767-.602zm42.449 9.816c-.834-.19-1.671-.375-2.51-.56l.55-2.373c-.25-.215-.795-.413-1.643-.596-.715-.154-1.368-.194-1.953-.13a3.286 3.286 0 0 0-1.58.62c-.469.341-.871.846-1.209 1.512-.342.669-.619 1.513-.838 2.538a6.191 6.191 0 0 0-.11 1.991c.073.657.258 1.255.565 1.8.302.548.733 1.021 1.288 1.417.554.398 1.242.688 2.065.867.44.096.838.137 1.196.13.357-.012.676-.035.955-.068.275-.037.53-.09.758-.162.23-.071.453-.157.667-.248l.446 1.162c-.498.402-1.208.713-2.132.94-.923.229-1.946.219-3.072-.023-1.198-.258-2.21-.642-3.04-1.16-.83-.517-1.482-1.132-1.96-1.857a5.67 5.67 0 0 1-.891-2.448c-.117-.91-.07-1.893.148-2.941.462-2.248 1.473-3.838 3.047-4.752 1.57-.915 3.505-1.134 5.78-.644 1.035.225 1.874.47 2.523.74a7.78 7.78 0 0 1 1.727.968c-.26 1.094-.517 2.186-.777 3.277zm18.14 5.216c-.59-.164-1.177-.323-1.768-.48.246-.873.49-1.746.737-2.618-.138-.216-.278-.433-.415-.65-.95-.251-1.896-.497-2.843-.745l-2.89 10.62c.67.175 1.338.348 2.008.525l-.346 1.25a418.124 418.124 0 0 0-6.852-1.752c.107-.418.215-.837.324-1.253.671.165 1.34.333 2.012.502l2.812-10.641c-.95-.24-1.9-.475-2.85-.706l-.69.362c-.22.879-.446 1.757-.669 2.638a312.6 312.6 0 0 0-1.779-.43l1.101-4.396a431.052 431.052 0 0 1 13.354 3.412l-1.245 4.362zm-83.319-39.31c-1.95-.447-3.463-.865-4.537-1.261-.52-.18-1.04-.358-1.56-.535l.53-9.516c1.837.104 3.675.214 5.515.337.177 1.406.35 2.81.523 4.213 1.38.794 3.097 1.267 5.165 1.431 1.815.146 3.374-.073 4.69-.668 1.312-.6 2.031-1.52 2.148-2.772.085-.89-.29-1.706-1.132-2.446-.84-.743-1.923-1.355-3.253-1.83a50.414 50.414 0 0 1-4.316-1.81 47.244 47.244 0 0 1-4.314-2.295c-1.322-.798-2.403-1.925-3.24-3.383-.837-1.456-1.208-3.14-1.102-5.059.186-3.334 1.645-5.852 4.425-7.519 2.776-1.664 6.33-2.34 10.616-1.978 1.895.158 3.87.502 5.917 1.03 2.051.532 3.622 1.03 4.719 1.477.548.225 1.096.454 1.642.677-.425 2.983-.848 5.965-1.271 8.95a470.988 470.988 0 0 0-5.106-.53c-.326-1.442-.653-2.89-.986-4.335-1.632-.654-3.26-1.05-4.867-1.185-1.91-.165-3.41.05-4.487.629-1.08.585-1.652 1.387-1.73 2.413-.066.888.342 1.698 1.218 2.431.875.727 1.986 1.337 3.338 1.83a49.843 49.843 0 0 1 4.342 1.854 40.94 40.94 0 0 1 4.266 2.36c1.298.83 2.33 1.973 3.088 3.42.759 1.448 1.032 3.08.826 4.886-.407 3.585-2.074 6.232-4.95 7.981-2.878 1.75-6.38 2.43-10.558 2.091-1.76-.141-3.608-.439-5.559-.889zm-55.387 20.217c.027.43.052.859.077 1.29-.531.031-1.065.062-1.6.096.104 1.598.206 3.2.308 4.8.49-.027.98-.057 1.47-.086a403.95 403.95 0 0 1 4.17-5.033c-.6.027-1.2.058-1.801.087-.025-.43-.048-.86-.07-1.291a403.06 403.06 0 0 1 5.939-.26l.05 1.293-1.83.07a391.37 391.37 0 0 0-4.18 4.832c2.038 2.02 4.049 4.054 6.029 6.102.462-.017.93-.033 1.392-.048l.048 1.294a426.72 426.72 0 0 0-3.998.154c-1.821-2.06-3.67-4.11-5.545-6.148-.536.031-1.072.06-1.607.094.11 1.704.219 3.408.327 5.115.65-.038 1.298-.078 1.949-.115l.075 1.296c-2.301.125-4.604.27-6.905.44l-.098-1.294c.686-.05 1.371-.096 2.057-.142l-.78-10.973c-.704.046-1.408.096-2.115.146-.031-.43-.064-.86-.098-1.288 2.245-.164 4.491-.306 6.736-.43zm102.11-19.16c-.245 1.418-.489 2.841-.735 4.258a472.271 472.271 0 0 0-15.99-2.435c.19-1.427.387-2.854.578-4.277a338.71 338.71 0 0 1 4.156-.68l3.376-23.345a480.559 480.559 0 0 0-3.989-2.057l.553-4.083c4.345.5 8.686 1.056 13.023 1.673 1.786.287 3.57.585 5.354.894 4.28.737 7.457 2.283 9.502 4.566 2.044 2.288 2.72 5.025 2.074 8.204-.822 4.026-2.774 6.782-5.813 8.323-3.04 1.538-7 1.857-11.942 1.028-.95-.159-1.9-.317-2.849-.47-.354 2.174-.709 4.347-1.065 6.52 1.261.62 2.516 1.252 3.766 1.88zm.03-25.163c-.6 3.675-1.2 7.352-1.798 11.03.963.154 1.923.312 2.884.472 2.284.384 4.112.22 5.502-.506 1.386-.73 2.251-1.983 2.585-3.775.298-1.627.056-3.035-.738-4.217-.796-1.19-2.126-1.948-3.98-2.262-1.485-.252-2.97-.502-4.455-.742zM87.716 90.54c-.41.77-1 1.452-1.767 2.052-.767.593-1.688 1.083-2.764 1.466-1.198.425-2.294.644-3.295.65-1.002.007-1.905-.168-2.71-.525a5.913 5.913 0 0 1-2.11-1.583c-.6-.698-1.099-1.546-1.495-2.544-.42-1.062-.623-2.064-.606-3.016.019-.95.23-1.821.636-2.607.408-.787 1.006-1.493 1.794-2.112s1.73-1.123 2.824-1.515c1.278-.452 2.436-.681 3.474-.683 1.036-.004 1.95.187 2.743.567.79.379 1.471.933 2.044 1.662.574.73 1.038 1.6 1.395 2.61.381 1.078.552 2.084.512 3.02a5.876 5.876 0 0 1-.675 2.558zm-2.372-.014c.359-1.113.196-2.62-.494-4.526a9.97 9.97 0 0 0-1.035-2.102c-.41-.622-.882-1.116-1.42-1.491a3.925 3.925 0 0 0-1.794-.678c-.66-.077-1.392.021-2.195.309-1.208.43-2 1.215-2.373 2.348-.376 1.132-.19 2.654.548 4.56.3.774.656 1.464 1.073 2.068.417.603.9 1.078 1.45 1.433.553.352 1.17.565 1.855.638.684.077 1.445-.035 2.278-.332 1.049-.37 1.749-1.109 2.107-2.227zm162.084 93.511c7.694-9.916 13.307-18.991 77.912-49.906 17.461-8.354 34.167-9.283 34.167-9.283s-5.962 23.756-40.657 53.392c-34.692 29.635-43.274 22.091-62.085 18.26-5.227-1.067-8.147-.362-9.166.2-.3.167-7.814 4.258-18.272 9.958 33.3 18.6 65.479 36.638 65.479 36.638.002.002-.169 1.852-1.157 3.469-.808 1.318-2.138 1.691-2.138 1.691s-33.765-19.227-67.704-38.796c-25.322 13.79-61.774 33.636-61.774 33.636l-16.162 5.2s42.627-25.342 71.537-42.527c-26.73-15.438-52.25-30.35-59.993-35.421-2.536-1.658-2.974-1.67-4.618 0-1.35 1.38-3.026 2.892-4.617 4.62-2.432 2.642-4.151 3.705-6.344 1.992-10.218-7.964-51.35-34.954-51.35-34.954l-4.166-3.97 54.933 31.158s1.61 1.56 3.464-1.154c2.417-3.546-.578-4.62-.578-4.62l-53.12-33.54 54.852 28.924s2.872 2.031 4.616-.579c2.574-3.848-1.152-5.196-1.152-5.196l-53.954-30.72 5.52 1.63s43.094 21.05 55.743 26.296c2.58 1.073 2.899 2.927 2.434 5.023-.565 2.548-1.438 5.29-2.24 7.586-.834 2.391-.555 3.14 1.156 4.041 6.5 3.425 35.168 19.375 64.593 35.807 11.97-7.115 20.562-12.223 20.873-12.409 1.054-.627.9-2.493 3.968-6.446zm96.776-52.637c-5.774-.208-18.509 5.533-25.034 8.506-65.377 29.78-65.365 44.359-65.365 44.359l65.322-34.588s-43.522 27.33-50.843 32.515c-8.27 5.858-6.979 8.643-4.136 10.362 7.239 4.383 40.1 5.267 73.596-39.769 2.911-3.814 8.69-10.891 6.46-21.385zM64.926 87.49c1.388.59 2.535 2 3.45 4.23.433 1.056.66 2.075.683 3.05.023.978-.146 1.882-.506 2.714a6.43 6.43 0 0 1-1.61 2.226c-.714.652-1.594 1.19-2.638 1.62-.348.143-.658.262-.935.358-.278.096-.534.175-.774.24-.241.06-.483.106-.727.135-.246.025-.498.046-.759.063l1.66 3.76c.635-.27 1.273-.536 1.91-.8.173.395.346.795.52 1.19a452.744 452.744 0 0 0-6.499 2.759c-.18-.392-.358-.788-.54-1.182.634-.275 1.27-.548 1.903-.821-2.226-4.938-4.45-9.877-6.675-14.815-.661.285-1.322.567-1.98.854-.18-.391-.36-.79-.542-1.181 1.6-.696 3.203-1.38 4.81-2.06l1.105 2.5c.008-.007.016-.009.025-.013.023-1.007.287-1.905.8-2.701.513-.794 1.365-1.438 2.555-1.922 1.784-.727 3.376-.79 4.764-.204zm1.115 9.948c.138-.644.154-1.348.048-2.117-.107-.771-.338-1.577-.695-2.423a9.437 9.437 0 0 0-.979-1.806c-.363-.517-.77-.923-1.22-1.217a3.171 3.171 0 0 0-1.523-.508c-.566-.042-1.192.077-1.874.36-.968.394-1.63.956-1.982 1.673-.35.719-.455 1.575-.309 2.565 1.027 2.32 2.053 4.643 3.082 6.964.438.06.889.038 1.348-.069.457-.106 1.045-.308 1.76-.604.647-.264 1.165-.637 1.553-1.125a4.02 4.02 0 0 0 .79-1.693zM45.69 107.773c.87-.407 1.738-.81 2.607-1.21l.565 1.172a416.782 416.782 0 0 0-7.188 3.383l-.588-1.159c.634-.306 1.267-.608 1.9-.91l-4.945-9.896c-.65.31-1.302.623-1.95.936-.196-.388-.392-.773-.588-1.157a414.837 414.837 0 0 1 11.11-5.167l1.936 4.12c-.564.25-1.127.503-1.69.76-.39-.824-.781-1.645-1.173-2.469-.252-.075-.502-.152-.755-.227a384.832 384.832 0 0 0-4.112 1.895c1.624 3.308 3.247 6.618 4.871 9.929zm328.967-25.88c1.802.657 3.007 1.672 3.607 3.022.598 1.352.448 3.147-.442 5.38-.423 1.061-.969 1.955-1.634 2.684a6.656 6.656 0 0 1-2.26 1.644 6.72 6.72 0 0 1-2.727.552c-.973 0-1.988-.192-3.045-.569a19.088 19.088 0 0 1-.93-.36c-.266-.117-.508-.23-.727-.344a4.96 4.96 0 0 1-.619-.385c-.198-.14-.393-.294-.593-.457-.474 1.284-.945 2.567-1.418 3.846l1.94.688-.452 1.216a408.695 408.695 0 0 0-6.625-2.302c.146-.406.29-.814.431-1.22.65.218 1.299.437 1.947.662 1.832-5.085 3.66-10.17 5.487-15.254a144.9 144.9 0 0 0-2.025-.69c.143-.41.287-.819.433-1.223 1.638.552 3.276 1.117 4.91 1.69-.312.852-.627 1.706-.94 2.556.009.002.02.008.027.013.715-.723 1.536-1.205 2.462-1.444.925-.242 1.99-.144 3.193.296zm.724 5.311c.096-.621.084-1.186-.037-1.704a2.993 2.993 0 0 0-.753-1.382c-.382-.407-.918-.736-1.609-.984-.98-.353-1.85-.386-2.605-.09-.758.288-1.43.847-2.016 1.666-.876 2.381-1.752 4.763-2.629 7.142.278.334.62.617 1.025.845.409.225.974.469 1.7.73.653.233 1.292.306 1.911.21a4.256 4.256 0 0 0 1.759-.713c.549-.38 1.056-.884 1.515-1.518.458-.63.855-1.376 1.189-2.233a9.443 9.443 0 0 0 .55-1.969zm36.865 12.134c.194-.387.385-.775.58-1.163a419.17 419.17 0 0 1 6.458 3.146c-.2.387-.398.769-.6 1.154l-1.94-.959-5.055 9.83c.63.309 1.26.62 1.888.932-.2.386-.4.77-.598 1.157a374.988 374.988 0 0 0-6.25-3.043c.192-.39.386-.776.582-1.165l1.692.81c.738-1.46 1.475-2.924 2.215-4.385a402.624 402.624 0 0 0-6.375-3.01c-.71 1.474-1.423 2.947-2.138 4.421.567.263 1.133.527 1.698.792-.187.39-.38.778-.569 1.167-2.096-.977-4.2-1.94-6.304-2.882.183-.394.367-.784.548-1.18.64.285 1.28.577 1.915.865 1.58-3.329 3.16-6.656 4.74-9.98-.657-.296-1.311-.594-1.968-.886.183-.392.367-.786.552-1.178 2.178.978 4.352 1.97 6.517 2.983-.191.388-.383.78-.57 1.167a425.43 425.43 0 0 0-1.747-.813c-.682 1.405-1.361 2.81-2.038 4.213 2.136.992 4.27 1.995 6.394 3.02.704-1.392 1.406-2.787 2.11-4.177-.579-.281-1.158-.559-1.737-.836zM42.916 68.363c-1.248 3.17-4.425 5.835-9.539 8.14-4.852 2.19-8.812 2.832-11.963 1.85-3.147-.988-5.816-3.622-7.974-7.957-2.338-4.704-4.678-9.406-7.017-14.113-1.515.192-3.034.388-4.554.594C1.25 55.652.623 54.425 0 53.2a497.091 497.091 0 0 1 16.081-7.99c.613 1.323 1.228 2.646 1.84 3.973a388.178 388.178 0 0 0-3.445 3.238l6.757 14.237c1.236 2.604 2.599 4.227 4.076 4.871 1.48.648 3.406.423 5.798-.654 2.526-1.138 3.952-2.492 4.283-4.102.328-1.606-.125-3.838-1.375-6.692L27.994 46.33c-1.567.138-3.139.283-4.712.436l-1.69-3.763a504.83 504.83 0 0 1 16.362-7.175l1.644 4.054a468.076 468.076 0 0 0-3.418 2.996l5.771 13.858c1.91 4.59 2.21 8.465.965 11.627zm351.677 21.76c.52.49.863.996 1.03 1.508.169.51.194 1.021.085 1.53-.112.508-.27.993-.475 1.45a70.003 70.003 0 0 1-1.346 2.827c-.452.89-.867 1.76-1.25 2.616-.163.36-.32.731-.468 1.11-.15.38-.275.728-.373 1.042.582.248 1.161.498 1.745.75l-.538 1.186a326.411 326.411 0 0 0-4.15-1.773c.242-.79.484-1.58.728-2.371-.044-.019-.088-.033-.131-.054a2.96 2.96 0 0 1-.89.725 4.305 4.305 0 0 1-1.24.44c-.46.089-.965.106-1.513.047a6.161 6.161 0 0 1-1.71-.446 5.724 5.724 0 0 1-1.531-.9 4.294 4.294 0 0 1-1.015-1.187 3.184 3.184 0 0 1-.421-1.381 3.315 3.315 0 0 1 .267-1.498c.323-.784.773-1.363 1.346-1.73.575-.368 1.28-.556 2.113-.57.832-.01 1.81.135 2.926.444 1.117.306 2.389.745 3.81 1.322.144-.235.269-.466.37-.693.1-.23.195-.45.293-.671.427-.973.567-1.792.417-2.458-.154-.667-.713-1.203-1.68-1.6a17.77 17.77 0 0 0-1.178-.43 3.559 3.559 0 0 0-1.248-.177c-.306.721-.613 1.438-.917 2.157a264.1 264.1 0 0 0-2.41-.967l1.11-2.66a15.04 15.04 0 0 1 2.648.112c.988.119 2.08.43 3.273.919 1.03.425 1.804.89 2.323 1.38zm-4.674 8.885c.414-.943.831-1.885 1.246-2.825-1.148-.48-2.11-.796-2.88-.954-.776-.158-1.413-.206-1.914-.152-.502.058-.892.212-1.173.466a2.424 2.424 0 0 0-.644.898c-.302.713-.323 1.347-.06 1.888.26.544.756.964 1.49 1.264.419.17.819.266 1.202.285.382.016.74-.01 1.074-.088.333-.079.64-.191.919-.335.281-.145.53-.295.74-.447zm41.336-53.866a506.393 506.393 0 0 1 14.739 7.03l-4.312 8.57a676.226 676.226 0 0 0-4.781-2.344c.119-1.323.231-2.648.342-3.975a526.254 526.254 0 0 0-8.447-3.958c-1.161 2.512-2.324 5.025-3.483 7.535a490.977 490.977 0 0 1 10.346 4.877l-2.414 4.906a474.99 474.99 0 0 0-10.227-4.82l-4.024 8.708a447.99 447.99 0 0 1 8.785 4.125 704.933 704.933 0 0 1 2.955-3.154c1.53.741 3.053 1.493 4.577 2.254-1.495 2.956-2.989 5.914-4.481 8.873a464.474 464.474 0 0 0-25.641-11.834c.569-1.322 1.138-2.647 1.709-3.97 1.413.152 2.832.31 4.251.477 3.17-7.202 6.342-14.402 9.512-21.602a363.11 363.11 0 0 0-3.365-3.073c.543-1.26 1.085-2.527 1.63-3.79a519.184 519.184 0 0 1 12.329 5.165zM396.652 58.41c.386 1.753.763 3.507 1.13 5.257-.183.07-.459.164-.82.29-.362.122-1.106.3-2.227.533-1.123.237-2.253.379-3.395.437-1.142.058-2.511-.008-4.11-.185a19.608 19.608 0 0 1-4.614-1.075c-5.133-1.871-8.618-4.642-10.512-8.438-1.889-3.787-1.99-8.4-.213-13.848 1.8-5.508 4.831-9.323 9.185-11.358 4.345-2.038 9.39-2.058 15.003.004a35.867 35.867 0 0 1 5.867 2.806c1.95 1.155 3.405 2.142 4.368 2.948.5.41.999.825 1.497 1.234-1.263 2.887-2.528 5.768-3.79 8.654a472.625 472.625 0 0 0-5.164-2.019c.173-1.64.34-3.277.503-4.917-1.48-1.129-3.385-2.129-5.709-2.983-5.919-2.162-10.226.677-12.88 8.335-2.496 7.207-.835 11.775 4.934 13.888 1.496.55 3.15.856 4.972.927 1.822.07 3.285.01 4.387-.202.53-.098 1.059-.194 1.588-.288zM151.167 75.834c-3.66.646-7.311 1.342-10.954 2.086-.148.207-.292.411-.438.622.238 1.094.475 2.192.713 3.293-.648.131-1.298.267-1.947.402l-1.123-5.06c.613-.13 1.223-.26 1.836-.382.184-.305.377-.732.584-1.286.206-.553.358-1.28.454-2.178.098-.905.113-1.997.044-3.29-.069-1.29-.286-2.813-.655-4.573-.733.144-1.465.292-2.198.442-.09-.42-.182-.844-.271-1.265 4.528-.925 9.068-1.78 13.62-2.562l.23 1.276c-.697.119-1.396.244-2.094.365.673 3.612 1.344 7.218 2.018 10.828.825-.146 1.65-.29 2.478-.431.306 1.7.61 3.4.917 5.1-.653.113-1.307.225-1.957.34-.205-1.105-.411-2.208-.613-3.314-.215-.138-.43-.273-.644-.413zm-9.113-6.396c.059 1.223.046 2.287-.033 3.194-.084.903-.207 1.662-.374 2.277a15.675 15.675 0 0 1-.473 1.497c2.308-.465 4.618-.905 6.933-1.333l-2.085-10.74c-1.507.278-3.014.563-4.52.855.31 1.612.494 3.03.552 4.25zm19.244-6.59c-.313.481-.509 1.094-.584 1.831-.077.746-.031 1.631.134 2.665.106.681.312 1.314.616 1.902a4.832 4.832 0 0 0 1.176 1.494c.481.408 1.05.7 1.713.883.66.183 1.409.217 2.24.1a4.89 4.89 0 0 0 1.163-.29c.33-.13.617-.262.865-.39.246-.128.463-.266.65-.41.188-.15.365-.302.532-.464l.838.937c-.321.544-.873 1.084-1.653 1.61-.777.532-1.734.874-2.872 1.036-1.213.17-2.296.154-3.257-.044-.963-.198-1.795-.552-2.501-1.062a5.81 5.81 0 0 1-1.717-1.988c-.438-.812-.749-1.748-.924-2.802-.377-2.264-.006-4.1 1.134-5.5 1.138-1.396 2.866-2.264 5.167-2.587 1.044-.148 1.919-.204 2.62-.177.7.029 1.354.135 1.958.316.155 1.113.305 2.223.459 3.338-.848.106-1.697.22-2.543.335-.114-.806-.231-1.61-.346-2.412-.308-.115-.89-.113-1.746.006-.723.102-1.347.288-1.87.554-.52.267-.94.64-1.252 1.119zm-8.316-22.425a463.017 463.017 0 0 0-15.795 2.712c-.273-1.41-.546-2.829-.817-4.241 1.208-.619 2.424-1.23 3.64-1.838a677.683 677.683 0 0 1 7.076-31.002 507.264 507.264 0 0 1 9.014-1.467 689.551 689.551 0 0 1 15.5 27.853c1.285.237 2.57.483 3.849.733l.452 4.3a457.25 457.25 0 0 0-16.727 2.035c-.202-1.425-.406-2.852-.61-4.275 1.27-.564 2.546-1.12 3.826-1.67a506.52 506.52 0 0 0-1.78-3.526 478.705 478.705 0 0 0-11.882 1.753c-.248 1.28-.493 2.56-.733 3.841 1.442.167 2.882.34 4.32.521l.667 4.27zm-.677-26.469a734.898 734.898 0 0 0-2.537 12.29c2.774-.434 5.553-.84 8.335-1.227a778.246 778.246 0 0 0-5.798-11.063zm32.998-6.602a367.974 367.974 0 0 0-4.34-1.137l-.362-4.109c4.533-.475 9.072-.887 13.617-1.24a517.217 517.217 0 0 1 16.03 22.259l-.495-17.075a512.15 512.15 0 0 0-4.164-1.354l-.152-4.117c5.4-.281 10.806-.475 16.217-.579l.02 4.369c-1.408.502-2.813 1.01-4.214 1.525.13 9.714.257 19.429.386 29.146-2.945.035-5.89.1-8.835.193a511.024 511.024 0 0 0-15.59-21.783c.356 5.633.712 11.267 1.07 16.902 1.418.323 2.83.656 4.24.996l.235 4.315c-5.11.27-10.216.629-15.314 1.07-.125-1.43-.254-2.868-.38-4.3a400.164 400.164 0 0 1 3.898-1.57l-1.867-23.51zm33.762 60.531c.342-.77.684-1.545 1.03-2.316a467.326 467.326 0 0 1 5.56-9.78c1.865.005 3.733.015 5.596.044-.004.432-.01.86-.017 1.294-.706-.012-1.41-.02-2.117-.027l-.1 10.998c.688.006 1.373.017 2.061.025l-.019 1.296c-2.221-.036-4.443-.05-6.665-.046a266.96 266.96 0 0 1-.004-1.296c.613 0 1.228 0 1.84.002l.02-8.28.318-2.664h-.17c-.405.852-.803 1.705-1.201 2.56a467.783 467.783 0 0 0-5.582 9.711c-1.786.021-3.572.056-5.358.102-.012-.433-.025-.864-.035-1.296.685-.014 1.373-.033 2.06-.047-.08-3.665-.162-7.33-.245-10.992-.707.01-1.411.027-2.117.046-.01-.432-.023-.863-.036-1.294 2.297-.054 4.593-.098 6.89-.119l.015 1.294c-.63.006-1.261.012-1.89.02.041 2.661.083 5.313.122 7.97l-.123 2.797.167-.002zm28.613-7.595a481.78 481.78 0 0 0-6.1 9.41c-1.782-.07-3.567-.13-5.352-.177.012-.431.023-.863.033-1.294.687.019 1.375.038 2.062.063l.35-10.994c-.704-.025-1.41-.044-2.114-.063l.033-1.293c2.296.06 4.591.141 6.884.24l-.056 1.29a286.01 286.01 0 0 0-1.887-.074c-.102 2.654-.206 5.308-.31 7.962l-.275 2.786c.054.004.11.004.166.008.384-.754.767-1.508 1.154-2.26a485.307 485.307 0 0 1 6.08-9.482c1.865.1 3.727.213 5.587.336l-.088 1.294c-.706-.05-1.41-.094-2.114-.138-.231 3.658-.464 7.317-.698 10.975.688.042 1.373.088 2.058.131l-.087 1.292a506.603 506.603 0 0 0-6.655-.39l.069-1.29c.612.03 1.224.061 1.837.099.156-2.759.31-5.515.468-8.271.152-.881.309-1.763.463-2.644-.056-.002-.113-.006-.171-.01-.448.831-.894 1.662-1.337 2.493zM123.655 67.37c1.075-.254 1.967-.336 2.678-.242.708.094 1.283.298 1.727.615.442.316.774.712.994 1.183.221.473.39.952.505 1.442.254 1.056.47 2.075.654 3.052.184.977.384 1.919.598 2.827.092.385.194.775.307 1.165.112.391.225.743.337 1.054.611-.138 1.222-.275 1.832-.409.096.421.194.842.292 1.263-1.453.32-2.901.648-4.352.983-.285-.775-.575-1.552-.862-2.327-.046.01-.092.025-.138.036-.008.354-.096.72-.263 1.095-.166.38-.406.736-.714 1.075a4.813 4.813 0 0 1-1.167.917 6.18 6.18 0 0 1-1.626.635c-.615.148-1.2.205-1.76.167-.56-.04-1.068-.16-1.529-.369a3.256 3.256 0 0 1-1.175-.864 3.416 3.416 0 0 1-.7-1.356c-.22-.821-.215-1.544.018-2.171.232-.634.676-1.196 1.33-1.688.652-.494 1.517-.941 2.588-1.344 1.072-.402 2.345-.785 3.818-1.147a5.13 5.13 0 0 0-.13-.77l-.174-.712c-.252-1.029-.64-1.768-1.165-2.216-.525-.448-1.292-.555-2.3-.313-.374.09-.77.206-1.19.34a3.432 3.432 0 0 0-1.099.58c.194.76.39 1.511.584 2.268-.832.204-1.666.41-2.5.62-.245-.927-.491-1.856-.737-2.78.592-.488 1.315-.972 2.17-1.449.856-.477 1.906-.864 3.149-1.16zm4.39 9.624l-.735-3.001c-1.2.281-2.156.584-2.866.903-.71.324-1.246.654-1.61.992-.36.34-.576.69-.649 1.056-.069.365-.056.732.04 1.1.196.757.564 1.277 1.102 1.56.541.286 1.192.336 1.956.153.437-.107.812-.261 1.126-.47a3.735 3.735 0 0 0 1.323-1.5c.136-.282.238-.545.313-.793zM95.607 22.76c-1.499-.11-3.002-.215-4.508-.308l-1.12-3.972c4.162-1.24 8.337-2.43 12.526-3.562 1.947-.487 3.895-.962 5.846-1.424 3.753-.89 6.909-.854 9.428.068 2.52.927 4.064 2.795 4.658 5.58.878 4.116-.735 7.23-4.768 9.425 5.452.169 8.56 2.25 9.37 6.098 1.392 6.728-2.422 10.952-11.375 13.078a466.084 466.084 0 0 0-16.25 4.201l-1.173-4.155c.784-.529 1.97-1.287 3.568-2.266-2.068-7.586-4.135-15.173-6.202-22.763zm23.047 13.738c-.402-1.742-1.266-2.896-2.599-3.454-1.337-.56-3.223-.556-5.649.035-1.036.25-2.07.504-3.103.763.794 3.13 1.59 6.26 2.382 9.391 1.45-.362 2.9-.718 4.351-1.066 1.819-.436 3.118-1.144 3.903-2.142.786-.994 1.026-2.17.715-3.527zm-10.037-17.042a449.1 449.1 0 0 0-4.672 1.144l2.074 8.19c1.043-.263 2.086-.521 3.131-.777 4.03-.978 5.705-2.928 5.012-5.932-.285-1.225-.93-2.054-1.938-2.483-1.01-.43-2.214-.477-3.607-.142zm-.129 66.215c-.122-.413-.25-.827-.375-1.24.596-.17 1.19-.34 1.784-.508l-3.13-10.567c-.083.021-.167.048-.248.069a494.93 494.93 0 0 0-2.2 11.569l-.839.248a508.874 508.874 0 0 0-8.42-8.415l-.247.08c1.146 3.49 2.296 6.98 3.445 10.474.59-.185 1.181-.37 1.773-.552.131.413.265.823.398 1.236-1.786.547-3.568 1.11-5.35 1.685l-.417-1.23c.661-.212 1.324-.424 1.985-.633l-3.49-10.462c-.652.206-1.304.417-1.954.625l-.42-1.227a435.944 435.944 0 0 1 6.143-1.93 549.944 549.944 0 0 1 6.502 6.767c.027-.006.054-.016.082-.025a503.02 503.02 0 0 1 1.692-9.18c2.013-.576 4.03-1.132 6.05-1.678.119.417.238.831.354 1.248-.687.183-1.373.37-2.059.558 1.02 3.532 2.036 7.059 3.058 10.59.667-.183 1.336-.365 2.005-.546.116.419.233.833.352 1.248-2.162.581-4.32 1.18-6.474 1.796zM240.964 53.14c-.31-.263-.518-.542-.622-.838.017-.502.035-1.002.054-1.5 1.085.04 2.17.08 3.256.127l-.09 2.04c.247.166.545.287.896.362.346.075.776.127 1.285.15.525.025.95.023 1.274-.002a3.58 3.58 0 0 0 .968-.223c.038-.706.075-1.414.115-2.119 1.055.055 2.11.113 3.166.178-.03.497-.062 1-.091 1.497-.078.288-.276.553-.6.794-.324.24-.738.444-1.238.602-.5.165-1.064.286-1.684.367-.621.081-1.276.102-1.969.069a10.947 10.947 0 0 1-1.95-.257 7.865 7.865 0 0 1-1.613-.53 5.22 5.22 0 0 1-1.157-.717zM53.334 36.199c-1.51.025-3.026.064-4.545.104-.492-1.284-.982-2.565-1.473-3.853a507.594 507.594 0 0 1 12.394-4.764c1.38-.48 2.763-.954 4.145-1.419 4.552-1.54 8.343-1.853 11.317-.998 2.976.858 4.941 2.907 5.927 6.101 1.296 4.214.202 7.806-3.19 10.836a13.958 13.958 0 0 1 3.192 2.376c1.857 1.796 3.697 3.6 5.523 5.418 1.286.004 2.568.019 3.85.033.414 1.38.831 2.761 1.244 4.141a448.788 448.788 0 0 0-9.448 2.917 553.837 553.837 0 0 0-7.196-7.326c-1.565-1.578-2.71-2.522-3.42-2.843-.71-.319-1.728-.256-3.051.196-.609.21-1.217.423-1.824.634.907 2.577 1.815 5.157 2.724 7.735a541.9 541.9 0 0 1 4.095-.094c.467 1.365.936 2.728 1.403 4.09a463.169 463.169 0 0 0-15.247 5.465c-.517-1.345-1.032-2.693-1.547-4.041 1.12-.863 2.245-1.726 3.374-2.586l-8.246-22.122zm12.745-4.497a425.215 425.215 0 0 0-4.42 1.517c1.127 3.2 2.257 6.402 3.384 9.604 1.003-.348 2.005-.692 3.007-1.033 2.078-.709 3.554-1.675 4.433-2.925.882-1.248 1.07-2.657.553-4.23-.465-1.414-1.324-2.402-2.583-2.948-1.256-.545-2.72-.543-4.374.015z"/></g></g></svg>